<?xml version="1.0" encoding="utf-8"?>
<!-- Generator: Adobe Illustrator 21.0.0, SVG Export Plug-In . SVG Version: 6.00 Build 0)  -->
<svg version="1.1" id="Layer_1" xmlns="http://www.w3.org/2000/svg" xmlns:xlink="http://www.w3.org/1999/xlink" x="0px" y="0px"
	 width="2000px" height="2000px" viewBox="0 0 2000 2000" style="enable-background:new 0 0 2000 2000;" xml:space="preserve">
<style type="text/css">
	.st0{fill:#FFFFFF;}
	.st1{fill:#EECCFC;}
	.st2{fill:#DFA4F8;}
	.st3{fill:#D083F5;}
	.st4{fill:url(#SVGID_1_);}
	.st5{fill:#51F2ED;}
	.st6{fill:url(#SVGID_2_);}
	.st7{fill:url(#SVGID_3_);}
	.st8{fill:url(#SVGID_4_);}
	.st9{fill:#D9FFFD;}
	.st10{fill:#FFE6F8;}
	.st11{fill:#D9E6F6;}
	.st12{fill:#917BFF;}
	.st13{fill:#B92BF1;}
	.st14{fill:url(#SVGID_5_);}
	.st15{fill:url(#SVGID_6_);}
	.st16{fill:url(#SVGID_7_);}
	.st17{fill:#7E5BFF;}
	.st18{fill:#FC70C7;}
	.st19{fill:url(#SVGID_8_);}
	.st20{fill:url(#SVGID_9_);}
	.st21{fill:url(#SVGID_10_);}
	.st22{fill:url(#SVGID_11_);}
	.st23{fill:#841BC1;}
	.st24{fill:#5C41E5;}
	.st25{fill:url(#SVGID_12_);}
	.st26{fill:url(#SVGID_13_);}
	.st27{fill:#BE43F7;}
	.st28{fill:#35CFDB;}
	.st29{fill:url(#SVGID_14_);}
	.st30{fill:url(#SVGID_15_);}
	.st31{fill:url(#SVGID_16_);}
	.st32{fill:url(#SVGID_17_);}
	.st33{fill:url(#SVGID_18_);}
	.st34{fill:url(#SVGID_19_);}
	.st35{fill:url(#SVGID_20_);}
	.st36{fill:url(#SVGID_21_);}
	.st37{fill:url(#SVGID_22_);}
</style>
<rect class="st0" width="2000" height="2000"/>
<g>
	<g>
		<path class="st1" d="M1858,1558.5c-14.6,15.3-30.9,28.9-48.4,40.7c-5.8,21.4-15.1,41.2-27.1,59.1
			C1815.8,1631.8,1842.8,1597.9,1858,1558.5 M243.6,1531.2c4.3,7.5,9.2,14.7,14.6,21.6c10.2,13.1,21.8,24.8,34.4,35.2
			c-4.6-9.4-8.5-19.2-11.6-29.3C267.7,1550.6,255.2,1541.5,243.6,1531.2 M177.8,408.2c-4.5,5.1-8.7,10.5-12.7,16.1
			c-13.5,18.8-23.3,39.2-30.2,60.5c8.3-8.6,17.2-16.6,26.7-23.8C165.2,442.8,170.5,425.1,177.8,408.2 M1792.8,379.2
			c12.6,19.4,23.5,39.9,32.6,61.2c6,6.4,11.8,13.1,17.3,20c13.9,17.4,25.9,35.8,36.2,55c-17.7-48.2-44.3-92.9-80.6-130.7
			C1796.4,382.9,1794.6,381,1792.8,379.2"/>
		<path class="st1" d="M292.6,1588c9.3,19,21.6,36.5,36.8,51.8c52.2,52.5,127.4,73.8,200.4,73.8c13.2,0,26.3-0.7,39.2-2
			c55.1-5.7,108.6-21.4,161.2-38.1c52.9-16.8,105.5-34,159.6-46.8c34.7-8.3,69.8-15.2,105-20.9c-9.9-2.1-19.8-3.8-29.8-5.3
			c-2.8,0.3-5.6,0.5-8.5,0.9c-0.4,0-0.8,0.1-1.2,0.1c-2.9,0-5.7-1.2-7.9-3.1c-43.9,1-87.7,3.9-131.3,8.9
			c-55.2,6.3-109.5,17-164.1,27.3c-51.5,9.7-103.8,18.5-156.4,18.5c-2.7,0-5.5,0-8.2-0.1C418.9,1651.7,346.3,1632.1,292.6,1588
			 M1817.7,1082.1c-4.7,11.3-9.2,22.7-13.5,34.2c-4.4,40.2-2.1,80.3,7.4,120c22.3,92.7,72.3,182.7,57.3,280.8
			c-2.2,14.4-5.9,28.2-11,41.4c38.3-40.1,64.5-91.2,66.2-147.9c3-99.1-57.4-182.5-90.7-271.8
			C1826.6,1120.1,1821.3,1101.2,1817.7,1082.1 M134.9,484.8c-13,13.5-24.4,28.8-33.7,45.9c-47.2,86.4-26.5,192.4,14,276.9
			c44.1,92.1,109.9,171.8,152,265c3.9-20.8,5.5-41.9,5.3-63c-1.2-4.5-2.4-9-3.6-13.4c-29.4-103.2-88.9-194-123.2-295.3
			C122.6,633,112.7,554,134.9,484.8 M1519.7,221.3c-15.5,0-31,1.3-46.6,3.9c-103.7,17.7-190.2,82.6-281.6,130
			c-71.3,37-146.7,67.5-224.8,86.5c7.8,0.9,15.7,1.7,23.5,2.4c95.3-5.9,189.1-29.4,278.4-62.8c96.4-36.1,190.1-90.1,295.2-95.2
			c4.5-0.2,8.9-0.3,13.3-0.3c81.5,0,158.2,36.1,215.7,93.4c-20.4-31.4-45.4-59.9-75.1-84.2C1661.5,249,1591.7,221.3,1519.7,221.3"/>
		<path class="st2" d="M281,1558.7c3.1,10.1,7,19.8,11.6,29.3c53.7,44.1,126.3,63.7,194.9,65c2.7,0,5.5,0.1,8.2,0.1
			c52.6,0,104.9-8.8,156.4-18.5c54.5-10.3,108.9-21,164.1-27.3c43.6-4.9,87.4-7.9,131.3-8.9c2.3,1.9,5,3.1,7.9,3.1
			c0.4,0,0.8,0,1.2-0.1c2.8-0.3,5.6-0.6,8.5-0.9c-20.4-3-41-4.6-61.8-4.6c-2.9,0-5.8,0-8.7,0.1c-0.1,0-0.2,0-0.2,0
			c-3.3,0-6.3-1.5-8.6-3.9c-33-2.2-66.1-3.4-99.2-3.4c-10.8,0-21.6,0.1-32.3,0.4c-55.5,1.2-110.6,7-165.9,12.4
			c-35.7,3.5-71.8,6.4-107.7,6.4c-19.3,0-38.6-0.9-57.9-2.9C373.8,1599.7,323.7,1584.7,281,1558.7 M1804.2,1116.3
			c-5.8,15.8-11.1,31.8-15.6,48c-13.2,47.7-16.7,96.4-9.5,145.4c13.8,94.3,55.5,188.5,31.7,284.8c-0.4,1.6-0.8,3.1-1.2,4.6
			c17.4-11.8,33.8-25.5,48.4-40.7c5.1-13.2,8.8-27,11-41.4c14.9-98-35-188.1-57.3-280.8C1802.1,1196.6,1799.8,1156.5,1804.2,1116.3
			 M161.6,460.9c-9.5,7.3-18.4,15.2-26.7,23.8C112.7,554,122.6,633,145.6,700.8c34.3,101.3,93.8,192,123.2,295.3
			c1.3,4.5,2.5,8.9,3.6,13.4c-0.2-26.3-3.3-52.6-8.2-78.5c-20-105.5-71-201.2-96-305.2C155.6,573.3,150.9,515.1,161.6,460.9
			 M1577.1,285.8c-4.4,0-8.9,0.1-13.3,0.3c-105.1,5.1-198.7,59.1-295.2,95.2c-89.3,33.4-183.1,57-278.4,62.8
			c4.8,0.4,9.6,0.8,14.4,1.1c17,1.1,33.9,1.7,50.9,1.7c87.8,0,175.5-14.5,260.1-37.7c94.7-26,188.4-68.5,288.1-68.4
			c4.8,0,9.6,0.1,14.5,0.3c80.2,3.4,153.3,41.6,207.2,99.4c-9.2-21.3-20-41.8-32.6-61.2C1735.3,321.9,1658.6,285.8,1577.1,285.8"/>
		<path class="st1" d="M1044,1600.7c-5.2,1-10.3,2.1-15.5,3.3c-0.8,0.2-1.6,0.3-2.5,0.3c-2.5,0-4.9-0.8-7-2.2
			c-8.1,1.2-16.2,2.4-24.3,3.7c18.5,3.9,36.9,8.7,55,14.4c105.6,33,202,89.2,306.3,125.5c56.8,19.7,116.1,33.1,175.3,33.1
			c37.6,0,75.1-5.4,111.9-17.9c55.3-18.8,106.9-54.1,139.2-102.6c-20,15.9-42.1,29.3-65.3,39.5c-47.5,21.1-97.3,29.6-147.6,29.6
			c-46.7,0-93.9-7.3-139.8-18.8c-107.2-26.7-208.2-74-316.4-97.3C1090.5,1606.4,1067.3,1602.7,1044,1600.7 M267.1,1072.5
			c-0.8,4-1.6,8.1-2.5,12.1c-11,47.3-32,91.6-50.9,136c-18.6,43.7-36.5,89.2-40.7,136.9c-3.9,44.7,6.1,89.1,30.4,127
			c11.3,17.6,24.9,33.1,40.2,46.7c-17.9-30.8-27-66-27.2-102.1c-0.2-47.9,13.5-94.8,28.1-140c14.8-46,31.7-92,38.4-140.1
			c1.4-10,2.2-19.9,2.6-29.9c-3.8-11.2-8.1-22.3-12.6-33.2C271.1,1081.4,269.1,1076.9,267.1,1072.5 M1878.8,515.5
			c14.6,39.6,23.1,81.6,26.1,124.3c3.6,51.1-0.8,102.7-10.5,153c-9.9,51.2-26.7,100.5-43.6,149.7c-13.4,38.9-26.9,78-36.4,118
			c0.9,7.2,2,14.4,3.4,21.6c8.6-20.7,17.8-41.1,26.9-61.5c21.3-47.5,42.5-95,57-145.1c14.2-49.2,23.2-100.2,24.3-151.4
			C1927.4,651.4,1912.7,579,1878.8,515.5 M418.1,269.3c-76.5,0-154.1,23.3-205.5,82.9c-14.7,17.1-26.2,36-34.9,56
			c50-57.4,126.3-82.7,201.5-86.2c5.8-0.3,11.5-0.4,17.2-0.4c91,0,177.4,32.3,262,63.3c49.2,18,98.7,35.7,149.9,46.7
			c44.7,9.6,90.3,13.9,136,13.9c2,0,3.9,0,5.9,0c5.5-1.2,10.9-2.5,16.4-3.8c-38.6-4.6-76.8-12.4-114-24
			c-50.1-15.6-97.8-37.7-145.1-60.1C621,316.7,532.5,274,435.2,269.7C429.5,269.4,423.8,269.3,418.1,269.3"/>
		<path class="st2" d="M1131.9,1592.5c-29.5,0-58.9,2.5-87.9,8.2c23.3,2.1,46.5,5.8,69.5,10.7c108.2,23.3,209.2,70.6,316.4,97.3
			c45.9,11.4,93,18.8,139.8,18.8c50.3,0,100.2-8.5,147.6-29.6c23.1-10.3,45.3-23.6,65.3-39.5c11.9-18,21.2-37.7,27.1-59.1
			c-4.7,3.2-9.5,6.2-14.3,9.1c-62.2,37.2-132,50.6-202.8,50.6c-27,0-54.2-2-81.2-5.3c-109.7-13.6-215.6-48.4-325.8-58.5
			C1167.7,1593.4,1149.8,1592.5,1131.9,1592.5 M285.6,1119.1c-0.4,10-1.2,20-2.6,29.9c-6.7,48.1-23.6,94.1-38.4,140.1
			c-14.6,45.2-28.3,92.1-28.1,140c0.2,36.2,9.2,71.3,27.2,102.1c11.6,10.3,24.1,19.4,37.4,27.5c-3.7-11.9-6.3-24.2-7.9-36.7
			c-6-47.6,2-95.8,11.1-142.4c9.2-47.4,20.4-95.2,21.3-143.7C306.1,1196,298.3,1156.8,285.6,1119.1 M1825.4,440.4
			c13,30.3,22.6,62.2,28.9,94.9c9.7,50.3,11.6,102.1,8,153.1c-3.7,52-14.4,103-25.3,153.8c-10.8,50.3-21.6,100.8-24.7,152.3
			c-1.3,22.2-0.7,44.2,2,65.9c9.6-40,23.1-79.1,36.4-118c16.9-49.2,33.7-98.5,43.6-149.7c9.7-50.3,14.1-101.9,10.5-153
			c-3-42.7-11.6-84.7-26.1-124.3c-10.3-19.2-22.3-37.7-36.2-55C1837.2,453.6,1831.4,446.9,1825.4,440.4 M396.5,321.6
			c-5.7,0-11.5,0.1-17.2,0.4c-75.2,3.5-151.5,28.8-201.5,86.2c-7.3,16.9-12.6,34.6-16.2,52.8c40-30.6,89.6-49.1,139.9-57.6
			c22.5-3.8,44.9-5.4,67.2-5.4c73.3,0,146.1,17.5,217.5,34.2c51,12,102.2,23.6,154.5,28.4c18.4,1.7,36.8,2.5,55.2,2.5
			c33.1,0,66.3-2.6,99.1-7.4c18.6-2.7,37-6.1,55.3-10.2c-2,0-3.9,0-5.9,0c-45.7,0-91.3-4.3-136-13.9c-51.3-11-100.8-28.7-149.9-46.7
			C573.9,353.9,487.5,321.6,396.5,321.6"/>
		<path class="st2" d="M1003,1598.8c-12.6,0-25.3,0.5-37.9,1.7c10,1.4,19.9,3.2,29.8,5.3c8.1-1.3,16.2-2.5,24.3-3.7
			c2.1,1.4,4.5,2.2,7,2.2c0.8,0,1.6-0.1,2.5-0.3c5.1-1.2,10.3-2.3,15.5-3.3C1030.3,1599.5,1016.7,1598.8,1003,1598.8 M1814.4,1060.5
			c-2.4,10-4.5,20-6.4,30.2c-1.6,8.6-2.8,17.1-3.8,25.7c4.3-11.5,8.8-22.9,13.5-34.2C1816.4,1074.9,1815.2,1067.7,1814.4,1060.5
			 M272.4,1009.5c0.2,21.1-1.4,42.2-5.3,63c2,4.4,3.9,8.9,5.8,13.3c4.6,10.9,8.8,22,12.6,33.2
			C286.9,1082.2,281.6,1045.3,272.4,1009.5 M966.7,441.7c-5.5,1.3-10.9,2.6-16.4,3.8c4,0,7.9-0.1,11.9-0.2c9.4-0.2,18.7-0.6,28-1.2
			C982.4,443.4,974.5,442.6,966.7,441.7"/>
		<path class="st3" d="M1603.7,340.7c-99.7,0-193.4,42.5-288.1,68.4c-84.6,23.2-172.2,37.7-260.1,37.7c-17,0-33.9-0.5-50.9-1.7
			c-4.8-0.3-9.6-0.7-14.4-1.1c-9.3,0.6-18.7,1-28,1.2c-4,0.1-7.9,0.2-11.9,0.2c-18.3,4-36.7,7.5-55.3,10.2
			c-32.8,4.8-66,7.4-99.1,7.4c-18.4,0-36.8-0.8-55.2-2.5c-52.2-4.8-103.5-16.4-154.5-28.4c-71.4-16.7-144.2-34.2-217.5-34.2
			c-22.4,0-44.8,1.6-67.2,5.4c-50.3,8.5-99.9,27-139.9,57.6c-10.7,54.2-6,112.4,6.7,164.9c25,104,76.1,199.7,96,305.2
			c4.9,25.8,7.9,52.2,8.2,78.5c9.2,35.8,14.5,72.7,13.2,109.6c12.7,37.6,20.6,76.9,19.9,116.9c-0.8,48.5-12.1,96.3-21.3,143.7
			c-9,46.6-17,94.8-11.1,142.4c1.6,12.5,4.2,24.8,7.9,36.7c42.7,26,92.8,40.9,141.7,46.3c19.2,2.1,38.6,2.9,57.9,2.9
			c36,0,72-3,107.7-6.4c55.2-5.3,110.3-11.1,165.9-12.4c10.8-0.2,21.6-0.4,32.3-0.4c33.1,0,66.2,1.1,99.2,3.4
			c2.3,2.3,5.3,3.9,8.6,3.9c0.1,0,0.2,0,0.2,0c2.9-0.1,5.8-0.1,8.7-0.1c20.8,0,41.4,1.6,61.8,4.6c12.6-1.2,25.3-1.7,37.9-1.7
			c13.7,0,27.4,0.6,41,1.8c29-5.7,58.4-8.2,87.9-8.2c17.9,0,35.7,0.9,53.6,2.5c110.2,10.1,216.2,44.9,325.8,58.5
			c26.9,3.3,54.1,5.3,81.2,5.3c70.8,0,140.6-13.4,202.8-50.6c4.8-2.9,9.6-5.9,14.3-9.1c0.4-1.5,0.8-3.1,1.2-4.6
			c23.7-96.3-17.9-190.5-31.7-284.8c-7.2-49-3.7-97.6,9.5-145.4c4.5-16.2,9.8-32.2,15.6-48c0.9-8.6,2.2-17.1,3.8-25.7
			c1.8-10.1,4-20.2,6.4-30.2c-2.7-21.7-3.3-43.7-2-65.9c3-51.4,13.9-102,24.7-152.3c10.9-50.9,21.6-101.8,25.3-153.8
			c3.6-51.1,1.7-102.8-8-153.1c-6.3-32.7-15.9-64.6-28.9-94.9c-54-57.9-127.1-96.1-207.2-99.4
			C1613.3,340.8,1608.5,340.7,1603.7,340.7"/>
	</g>
	<g>
		<g>
			
				<linearGradient id="SVGID_1_" gradientUnits="userSpaceOnUse" x1="289.5273" y1="904.8238" x2="289.5273" y2="1088.3418" gradientTransform="matrix(0.893 -0.45 0.45 0.893 -349.4922 253.9568)">
				<stop  offset="0" style="stop-color:#7E5BFF"/>
				<stop  offset="0.597" style="stop-color:#A040F7"/>
				<stop  offset="1" style="stop-color:#B92BF1"/>
			</linearGradient>
			<path class="st4" d="M441.6,1029.4c-4.8-6.3-9-13.2-11.5-20.8c-2.8-8.6-2.6-17.4-1.8-26.3c1.6-17,3.6-37.4-12-48.9
				c-11.7-8.6-27.3-7.9-40.6-12.2c-16.2-5.2-26.7-19.4-34.1-34c-8.8-17.4-14.2-36.7-26.3-52.3c-5.1-6.6-11.7-12.6-19.7-15.5
				c-7.5-2.7-16.4-2.2-23.1,2.5c-12.2,8.5-10.2,25-6.3,37.4c2.8,8.7,6.4,17.1,9.8,25.6c3.8,9.8,7.6,19.5,11.5,29.3
				c5.6,14.4,12.8,29.8,12.2,45.6c-0.3,7.4-2.6,14.4-7.5,19.9c-5.6,6.4-13.1,11.1-17.1,18.8c-6.6,12.7-2.3,27.5,5,39
				c9.5,14.9,24.7,24.5,35.5,38.3c5.7,7.3,9.3,15.6,10.2,24.8c0.8,8.5-0.2,17.1-0.7,25.7c-0.5,8.3-0.5,16.7,1.4,24.8
				c1.8,7.9,5,15.5,9.3,22.4c8.5,13.6,21.3,24.4,36.4,29.8c14.9,5.3,31.7,5.4,46.8,0.5c7.2-2.3,13.8-5.7,20-10.1
				c0.2-0.1,0.5-0.3,0.7-0.5c0.2-0.1,0.4-0.3,0.5-0.5c12.9-11.9,27.1-22.8,37.4-37.2c9.4-13.1,11.8-28.6,10.7-44.4
				c-0.6-7.7-1.9-15.6-4.2-23c-2.4-7.6-6.3-14.6-10.9-21.1C463.6,1053.6,451.4,1042.5,441.6,1029.4z"/>
			<path class="st5" d="M358.2,1000.3c0.2-0.2,0.5-0.4,0.7-0.7c7.6-11.9,11-25.8,9.9-39.8c-0.3-3.6-5.7-2.4-5.5,1.1
				c0.8,11.3-1.8,22.6-7.3,32.5c-4-12.9-8.3-25.8-13.1-38.4c-8.9-23.2-19.6-45.6-33.4-66.3c-2-3-7-0.5-5,2.5
				c13.5,20.3,24,42.2,32.7,64.8c-6.8-4.8-13.6-9.7-20.3-14.5c-2.9-2.1-6,2.6-3,4.7c8.5,6,17,12.1,25.4,18.1
				c0.4,0.3,0.9,0.5,1.3,0.5c6.1,16.6,11.3,33.6,16.2,50.6c3.1,10.9,6.1,21.9,9.2,32.9c-12.1-6.6-22.4-16.4-29.8-28
				c-1.9-3-6.9-0.5-5,2.5c9,14.2,21.6,25.5,36.8,32.7c8.4,30.4,17,60.7,28.9,89.9c1.7,4.1,3.4,8.3,5.2,12.4
				c-14.9-5.7-28.5-14.4-39.8-25.8c-2.5-2.5-6.7,1.2-4.1,3.8c13.2,13.2,29.2,23.1,46.9,29c0.1,0,0.2,0.1,0.3,0.1
				c2.1,4.4,4.4,8.8,6.8,13c5.6,9.4,12.7,17.8,22.9,22.1c3.3,1.4,5-3.9,1.8-5.3c-9-3.9-15.3-11.8-20.1-20.1
				c-5.3-9.1-9.4-18.8-13.5-28.4c-5.1-12.3-9.7-24.8-13.8-37.5c10-16.9,16.4-35.5,18.8-55c0.5-3.6-5.1-3.9-5.6-0.3
				c-2.1,16.9-7.5,33.2-15.6,48.1c-2-6.3-3.9-12.6-5.7-18.9C373.3,1055.2,366.3,1027.5,358.2,1000.3z"/>
		</g>
		<g>
			
				<linearGradient id="SVGID_2_" gradientUnits="userSpaceOnUse" x1="521.7447" y1="1275.347" x2="521.7447" y2="1477.7461" gradientTransform="matrix(0.7426 -0.6697 0.6697 0.7426 -993.2482 547.617)">
				<stop  offset="0" style="stop-color:#7E5BFF"/>
				<stop  offset="0.597" style="stop-color:#A040F7"/>
				<stop  offset="1" style="stop-color:#B92BF1"/>
			</linearGradient>
			<path class="st6" d="M410.1,1212.8c-6.9-5.3-13.4-11.5-18.2-18.8c-5.5-8.3-7.8-17.7-9.6-27.4c-3.3-18.6-7-40.8-27-48.5
				c-14.9-5.7-31.3-0.5-46.7-1.2c-18.8-0.9-34-12.8-46.2-26.3c-14.4-16-25.7-34.9-43.2-48c-7.4-5.6-16.1-10-25.5-10.7
				c-8.8-0.7-18.1,2.5-23.9,9.3c-10.5,12.6-3.6,29.6,4.2,41.6c5.5,8.4,11.8,16.3,17.8,24.4c6.9,9.3,13.8,18.5,20.7,27.8
				c10.2,13.7,22.3,27.9,26.3,45c1.9,7.9,1.4,16-2.2,23.4c-4.1,8.4-10.7,15.6-12.7,25c-3.3,15.5,5.5,30,16.6,40
				c14.4,13.1,33.4,18.9,49,30.4c8.2,6.1,14.4,13.9,18.1,23.4c3.4,8.8,4.8,18.3,6.7,27.5c1.9,9,4.4,17.9,8.7,26
				c4.2,7.9,9.8,15.1,16.4,21.1c13,12,29.7,19.8,47.4,21.1c17.4,1.3,35.3-3.5,49.9-13.1c7-4.6,13-10.1,18.3-16.6
				c0.2-0.2,0.4-0.4,0.6-0.7c0.2-0.2,0.3-0.4,0.4-0.6c10.2-16.5,22.2-32.2,29-50.5c6.2-16.7,4.3-33.9-1.6-50.3
				c-2.9-8-6.5-16-11.2-23.2c-4.8-7.4-10.9-13.7-17.7-19.3C440.6,1232.1,424.4,1223.8,410.1,1212.8z"/>
			<path class="st5" d="M312.9,1206.1c0.2-0.3,0.4-0.6,0.5-1c4.6-14.9,4.2-30.6-1-45.2c-1.3-3.7-6.8-0.9-5.5,2.8
				c4.2,11.8,4.7,24.6,1.7,36.6c-8-12.6-16.3-25-25.2-37.1c-16.2-22.1-34.2-42.8-54.8-60.8c-3-2.6-7.6,1.5-4.6,4.1
				c20.3,17.7,37.8,37.9,53.7,59.5c-8.6-3.2-17.2-6.3-25.9-9.5c-3.7-1.4-5.6,4.5-1.9,5.9c10.8,4,21.6,7.9,32.3,11.9
				c0.5,0.2,1,0.2,1.5,0.2c11.3,15.9,21.8,32.4,31.9,49.1c6.5,10.7,12.9,21.5,19.3,32.3c-14.8-3.5-28.6-10.9-39.9-21.1
				c-2.9-2.7-7.5,1.4-4.6,4.1c13.7,12.5,30.4,20.8,48.7,24.1c17.7,29.9,35.8,59.6,56.9,87.2c3,3.9,6,7.8,9.2,11.7
				c-17.5-1.7-34.5-7.1-49.9-15.8c-3.4-2-6.8,3.2-3.3,5.2c17.8,10.2,37.8,16.1,58.3,17.2c0.1,0,0.3,0,0.4,0
				c3.5,4.1,7.2,8.1,11.1,11.8c8.6,8.4,18.7,15.2,30.8,16.9c3.9,0.5,4.2-5.6,0.3-6.2c-10.7-1.5-19.7-8.1-27.2-15.5
				c-8.2-8.1-15.5-17.2-22.6-26.3c-9-11.6-17.5-23.6-25.6-35.9c5.7-20.8,7.1-42.6,4.1-64c-0.6-3.9-6.6-2.7-6,1.3
				c2.6,18.6,1.7,37.5-2.6,55.7c-3.9-6.1-7.8-12.3-11.6-18.4C345,1260.1,329.5,1232.7,312.9,1206.1z"/>
		</g>
		<g>
			
				<linearGradient id="SVGID_3_" gradientUnits="userSpaceOnUse" x1="334.3629" y1="818.4868" x2="334.3629" y2="988.7595" gradientTransform="matrix(-0.893 -0.45 -0.45 0.893 2379.1333 253.9568)">
				<stop  offset="0" style="stop-color:#7E5BFF"/>
				<stop  offset="0.597" style="stop-color:#A040F7"/>
				<stop  offset="1" style="stop-color:#B92BF1"/>
			</linearGradient>
			<path class="st7" d="M1566.7,960c-4.3,6.1-7.9,12.5-10.1,19.6c-2.2,6.9-3.4,14.2-3.9,21.3c-1.1,14.7,1.2,29.1,9.9,41.2
				c9.6,13.3,22.8,23.5,34.7,34.5c0.1,0.1,0.3,0.3,0.5,0.4c0.2,0.2,0.4,0.3,0.6,0.4c5.7,4.1,11.9,7.2,18.5,9.4
				c13.9,4.5,29.5,4.5,43.4-0.5c14.1-5,25.9-15.1,33.8-27.7c4-6.4,6.9-13.5,8.6-20.8c1.7-7.6,1.8-15.3,1.3-23
				c-0.5-7.9-1.5-15.9-0.7-23.8c0.9-8.6,4.2-16.3,9.5-23c10-12.8,24.2-21.7,33-35.5c6.8-10.6,10.7-24.4,4.6-36.2
				c-3.7-7.2-10.7-11.6-15.9-17.5c-4.6-5.2-6.7-11.7-7-18.5c-0.5-14.7,6.1-29,11.4-42.3c3.5-9.1,7.1-18.1,10.6-27.2
				c3.1-7.9,6.5-15.7,9.1-23.8c3.6-11.5,5.5-26.8-5.8-34.7c-6.2-4.3-14.5-4.8-21.4-2.3c-7.4,2.7-13.5,8.2-18.3,14.4
				c-11.2,14.5-16.2,32.4-24.4,48.6c-6.9,13.6-16.6,26.7-31.6,31.6c-12.3,4-26.8,3.4-37.6,11.4c-14.5,10.7-12.6,29.6-11.1,45.4
				c0.8,8.3,0.9,16.4-1.7,24.4c-2.3,7-6.2,13.4-10.6,19.3C1586.8,937.2,1575.5,947.5,1566.7,960z"/>
			<path class="st5" d="M1673.3,898.1c-0.2-0.2-0.4-0.4-0.6-0.7c-7-11-10.2-23.9-9.2-36.9c0.2-3.3,5.3-2.3,5.1,1
				c-0.8,10.5,1.7,21,6.7,30.1c3.7-12,7.7-23.9,12.2-35.7c8.2-21.5,18.2-42.3,31-61.5c1.8-2.7,6.5-0.4,4.6,2.3
				c-12.5,18.9-22.3,39.2-30.4,60.2c6.3-4.5,12.6-9,18.9-13.5c2.7-1.9,5.5,2.4,2.8,4.4c-7.9,5.6-15.7,11.2-23.6,16.8
				c-0.4,0.3-0.8,0.4-1.2,0.5c-5.6,15.4-10.5,31.1-15,46.9c-2.9,10.1-5.7,20.3-8.5,30.5c11.2-6.2,20.8-15.2,27.7-26
				c1.8-2.8,6.4-0.5,4.6,2.3c-8.3,13.2-20.1,23.6-34.1,30.4c-7.8,28.2-15.8,56.3-26.8,83.4c-1.6,3.8-3.2,7.7-4.8,11.5
				c13.9-5.3,26.5-13.4,37-23.9c2.3-2.4,6.2,1.1,3.8,3.5c-12.2,12.2-27.1,21.4-43.5,26.9c-0.1,0-0.2,0.1-0.3,0.1
				c-2,4.1-4,8.2-6.4,12.1c-5.2,8.7-11.8,16.5-21.3,20.5c-3.1,1.3-4.7-3.6-1.6-4.9c8.4-3.6,14.2-11,18.7-18.6
				c4.9-8.4,8.8-17.4,12.5-26.4c4.8-11.4,9-23.1,12.8-34.8c-9.3-15.6-15.2-33-17.5-51c-0.4-3.3,4.8-3.6,5.2-0.3
				c2,15.7,6.9,30.8,14.5,44.6c1.8-5.8,3.6-11.7,5.3-17.5C1659.2,949,1665.7,923.3,1673.3,898.1z"/>
		</g>
		<g>
			
				<linearGradient id="SVGID_4_" gradientUnits="userSpaceOnUse" x1="632.7004" y1="1143.316" x2="632.7004" y2="1331.1072" gradientTransform="matrix(-0.7426 -0.6697 -0.6697 0.7426 3022.8894 547.617)">
				<stop  offset="0" style="stop-color:#7E5BFF"/>
				<stop  offset="0.597" style="stop-color:#A040F7"/>
				<stop  offset="1" style="stop-color:#B92BF1"/>
			</linearGradient>
			<path class="st8" d="M1596,1064.2c-6.3,5.2-12,11-16.5,17.9c-4.3,6.7-7.7,14.1-10.3,21.5c-5.4,15.3-7.2,31.3-1.5,46.7
				c6.3,17,17.4,31.6,26.9,46.9c0.1,0.2,0.2,0.4,0.4,0.6c0.2,0.3,0.3,0.5,0.5,0.7c4.9,6,10.5,11.1,17,15.4
				c13.5,8.9,30.1,13.3,46.3,12.1c16.4-1.2,31.9-8.5,44-19.6c6.1-5.6,11.3-12.3,15.2-19.6c4-7.6,6.3-15.8,8.1-24.1
				c1.8-8.5,3.1-17.3,6.2-25.5c3.4-8.9,9.2-16.1,16.8-21.8c14.4-10.7,32-16.1,45.4-28.2c10.3-9.3,18.5-22.8,15.4-37.1
				c-1.9-8.7-8-15.4-11.8-23.2c-3.4-6.8-3.8-14.4-2.1-21.7c3.7-15.8,14.9-29,24.4-41.7c6.4-8.6,12.8-17.2,19.2-25.8
				c5.6-7.5,11.5-14.8,16.5-22.6c7.2-11.1,13.6-26.9,3.9-38.6c-5.3-6.4-14-9.3-22.1-8.7c-8.7,0.7-16.8,4.8-23.6,10
				c-16.2,12.2-26.6,29.7-40.1,44.6c-11.2,12.4-25.4,23.6-42.8,24.4c-14.3,0.7-29.5-4.2-43.3,1.1c-18.5,7.1-22,27.8-25.1,45
				c-1.6,9-3.8,17.7-8.9,25.5c-4.5,6.8-10.5,12.5-16.9,17.4C1624,1045.8,1609,1053.5,1596,1064.2z"/>
			<path class="st5" d="M1727.5,1029.3c-0.2-0.3-0.4-0.6-0.5-0.9c-4.3-13.8-3.9-28.4,0.9-42c1.2-3.5,6.3-0.9,5.1,2.6
				c-3.9,10.9-4.3,22.8-1.6,34c7.4-11.7,15.1-23.2,23.3-34.4c15-20.5,31.7-39.7,50.8-56.4c2.7-2.4,7,1.4,4.2,3.8
				c-18.8,16.4-35.1,35.2-49.8,55.2c8-2.9,16-5.9,24-8.8c3.5-1.3,5.2,4.2,1.7,5.5c-10,3.7-20,7.4-30,11c-0.5,0.2-1,0.2-1.4,0.2
				c-10.5,14.8-20.2,30.1-29.6,45.5c-6,9.9-12,20-17.9,30c13.7-3.3,26.6-10.1,37-19.6c2.7-2.5,7,1.3,4.2,3.8
				c-12.7,11.6-28.2,19.3-45.2,22.4c-16.5,27.7-33.2,55.3-52.8,80.9c-2.8,3.6-5.6,7.3-8.5,10.9c16.3-1.6,32.1-6.6,46.3-14.7
				c3.2-1.8,6.3,3,3.1,4.8c-16.5,9.4-35.1,14.9-54.1,16c-0.1,0-0.2,0-0.4,0c-3.3,3.8-6.7,7.5-10.3,11c-8,7.8-17.3,14.1-28.6,15.6
				c-3.7,0.5-3.9-5.2-0.3-5.7c9.9-1.4,18.3-7.5,25.3-14.4c7.6-7.5,14.4-16,21-24.4c8.4-10.8,16.2-21.9,23.7-33.3
				c-5.3-19.3-6.6-39.5-3.8-59.4c0.5-3.7,6.1-2.5,5.6,1.2c-2.4,17.2-1.6,34.8,2.4,51.7c3.7-5.7,7.2-11.4,10.8-17.1
				C1697.7,1079.4,1712,1054,1727.5,1029.3z"/>
		</g>
		<g>
			<path class="st0" d="M1598,545.6H430.6c-15.4,0-27.9,13.2-27.9,29.4v816c0,16.2,12.5,29.4,27.9,29.4H1598
				c15.4,0,27.9-13.2,27.9-29.4v-816C1625.8,558.7,1613.4,545.6,1598,545.6z"/>
			<g>
				<path class="st9" d="M572.5,1016.8c-45.3,28.3-75.4,78.6-75.4,136c0,88.5,71.7,160.2,160.2,160.2s160.2-71.7,160.2-160.2
					c0-16.9-2.6-33.2-7.5-48.5c-19.5,6-40.2,9.3-61.7,9.3C674.4,1113.6,609.4,1075,572.5,1016.8"/>
				<path class="st10" d="M1085.3,965.3c-49.5,0-89.7,40.2-89.7,89.7c0,49.5,40.2,89.7,89.7,89.7c0.4,0,0.8,0,1.2,0
					c5.8-55.5,33.5-104.5,74.2-138.3C1144.7,981.6,1116.9,965.3,1085.3,965.3"/>
				<path class="st10" d="M1418.7,779.6c-78.1,0-141.3,63.3-141.3,141.3c0,13.1,1.8,25.8,5.1,37.8c3.7-0.2,7.3-0.3,11-0.3
					c73.2,0,137.6,37.8,174.7,94.9c53.7-20.1,91.8-71.8,91.8-132.4C1560,842.9,1496.7,779.6,1418.7,779.6"/>
				<path class="st10" d="M748.4,697.2c-115,0-208.2,93.2-208.2,208.2c0,41,11.8,79.2,32.3,111.4c24.6-15.4,53.7-24.3,84.8-24.3
					c71.6,0,132.2,46.9,152.8,111.7C895,1078,956.6,998.9,956.6,905.4C956.6,790.4,863.4,697.2,748.4,697.2"/>
				<path class="st11" d="M657.3,992.6c-31.2,0-60.2,8.9-84.8,24.3c36.9,58.2,101.9,96.8,175.9,96.8c21.5,0,42.2-3.3,61.7-9.3
					C789.5,1039.5,728.9,992.6,657.3,992.6"/>
				<path class="st9" d="M1282.4,958.8c-46.2,2.4-88.4,19.9-121.8,47.6c9.1,14,14.3,30.7,14.3,48.6c0,49.2-39.5,89.1-88.5,89.7
					c-0.8,7.2-1.2,14.6-1.2,22c0,115,93.2,208.2,208.2,208.2c115,0,208.2-93.2,208.2-208.2c0-41.8-12.3-80.7-33.5-113.3
					c-15.4,5.8-32.1,8.9-49.5,8.9C1353.7,1062.3,1299,1018.5,1282.4,958.8"/>
				<path class="st11" d="M1160.6,1006.3c-40.7,33.8-68.4,82.8-74.2,138.3c49-0.6,88.5-40.5,88.5-89.7
					C1175,1037,1169.7,1020.4,1160.6,1006.3"/>
				<path class="st11" d="M1293.5,958.5c-3.7,0-7.4,0.1-11,0.3c16.5,59.7,71.3,103.5,136.2,103.5c17.4,0,34.1-3.2,49.5-8.9
					C1431,996.3,1366.7,958.5,1293.5,958.5"/>
			</g>
			<path class="st12" d="M1597.5,545.3H431.1c-15.6,0-28.3,13.4-28.3,29.9v38h1223.1v-38C1625.8,558.7,1613.2,545.3,1597.5,545.3z"
				/>
			<g>
				<path class="st5" d="M1151.8,1208.9c-5.6,0-10.1,4.5-10.1,10.1v38.6l-1-1.2c-1.7-2-4.1-3.2-6.7-3.3c-2.6-0.1-5.1,0.8-7,2.6
					c-3.9,3.7-4.2,10-0.7,14l17,19.8c0.1,0.1,0.2,0.2,0.3,0.4c1.2,1.5,4,5.1,9.5,5.1h31.9c6.3,0,11.4-5.3,11.4-11.8v-33.4
					c0-4.7-3.8-8.5-8.5-8.5h-26V1219C1161.9,1213.5,1157.4,1208.9,1151.8,1208.9z M1187.9,1246.5c1.8,0,3.3,1.5,3.3,3.3v33.4
					c0,3.7-2.8,6.7-6.2,6.7h-31.9c-3,0-4.5-1.9-5.5-3.1c-0.2-0.2-0.3-0.4-0.5-0.6l-17-19.8c-1.7-2-1.6-5.1,0.3-6.9
					c0.8-0.8,1.9-1.2,3-1.2c0.1,0,0.1,0,0.2,0c1.2,0.1,2.3,0.6,3.1,1.6l10.1,11.7V1219c0-2.7,2.2-5,5-5s5,2.2,5,5v27.5H1187.9z"/>
				<g id="XMLID_52_">
					<path id="XMLID_23_" class="st13" d="M1183.1,726.1c0,3.6,2.9,6.4,6.4,6.4s6.4-2.9,6.4-6.4c0-27-21.9-48.9-48.9-48.9
						c-3.6,0-6.4,2.9-6.4,6.4c0,3.6,2.9,6.4,6.4,6.4C1166.9,690.1,1183.1,706.3,1183.1,726.1z"/>
					<path id="XMLID_31_" class="st13" d="M1214.1,726.1c0,3.6,2.9,6.4,6.4,6.4c3.6,0,6.4-2.9,6.4-6.4c0-44.1-35.9-79.9-79.9-79.9
						c-3.6,0-6.4,2.9-6.4,6.4c0,3.6,2.9,6.4,6.4,6.4C1184,659.1,1214.1,689.2,1214.1,726.1z"/>
					<circle id="XMLID_32_" class="st13" cx="1151.3" cy="718.7" r="12"/>
				</g>
				<path id="XMLID_198_" class="st5" d="M817.6,1233.5v22.5c0,2.2,1.8,3.9,3.9,3.9h26.2v14.9c0,2.2,1.8,3.9,3.9,3.9h43.8
					c2.2,0,3.9-1.8,3.9-3.9V1260h25.2c2.2,0,3.9-1.8,3.9-3.9v-22.5c0-6.6-4-12.3-9.7-14.7c1.7-2.5,2.7-5.6,2.7-8.9
					c0-8.6-6.5-15.5-14.5-15.5c-8,0-14.5,7-14.5,15.5c0,3.4,1.1,6.6,2.8,9.2c-3.8,1.8-6.8,5.1-8.2,9.2c-0.3-0.1-0.6-0.2-0.9-0.3
					c2.5-3.3,4-7.4,4-12c0-10.3-7.8-18.7-17.3-18.7s-17.3,8.4-17.3,18.7c0,4.7,1.6,9,4.3,12.3c-0.3,0.1-0.6,0.3-1,0.4
					c-1.4-4.3-4.4-7.7-8.4-9.6c1.8-2.6,2.8-5.8,2.8-9.2c0-8.6-6.5-15.5-14.5-15.5c-8,0-14.5,7-14.5,15.5c0,3.3,1,6.4,2.7,8.9
					C821.6,1221.3,817.6,1226.9,817.6,1233.5z M907.1,1202.2c3.6,0,6.6,3.4,6.6,7.6s-2.9,7.6-6.6,7.6s-6.6-3.4-6.6-7.6
					S903.5,1202.2,907.1,1202.2z M894.5,1231.7c0.9-3.7,4.1-6.3,7.9-6.3h10.2c4.5,0,8.1,3.7,8.1,8.1v18.6h-21.3v-5.6
					c0-5.3-2.1-10.1-5.5-13.6C894.2,1232.5,894.3,1232.1,894.5,1231.7z M873.1,1205.1c5.2,0,9.5,4.9,9.5,10.8c0,6-4.2,10.8-9.5,10.8
					s-9.5-4.9-9.5-10.8C863.6,1210,867.9,1205.1,873.1,1205.1z M855.6,1246.5c0-6.5,5.3-11.8,11.8-11.8h12.3
					c6.5,0,11.8,5.3,11.8,11.8v24.4h-35.9V1246.5z M839.1,1202.2c3.6,0,6.6,3.4,6.6,7.6s-2.9,7.6-6.6,7.6c-3.6,0-6.6-3.4-6.6-7.6
					S835.4,1202.2,839.1,1202.2z M825.5,1233.5c0-4.5,3.7-8.1,8.1-8.1h10.2c3.8,0,7.1,2.6,7.9,6.3c0.1,0.6,0.2,1.2,0.2,1.8
					c0,0.2,0,0.5,0.1,0.7c-2.7,3.4-4.3,7.6-4.3,12.2v5.6h-22.2V1233.5z"/>
				<g id="XMLID_89_">
					<path id="XMLID_107_" class="st5" d="M533.5,1051.6c0,0.2,0.1,0.3,0.1,0.5c0,0.1,0,0.1,0.1,0.2c0.1,0.1,0.1,0.2,0.2,0.3
						c0,0,0.1,0.1,0.1,0.1c0.1,0.2,0.2,0.3,0.4,0.4c0,0,0,0,0,0l23.1,23.1c0.1,0.1,0.3,0.3,0.5,0.4c0.1,0,0.1,0.1,0.2,0.1
						c0.1,0.1,0.2,0.1,0.4,0.2c0.1,0,0.2,0.1,0.3,0.1c0.1,0,0.2,0.1,0.3,0.1c0.2,0,0.4,0.1,0.6,0.1c0,0,0,0,0,0h40.8
						c1.8,0,3.2-1.4,3.2-3.2v-85.1c0-1.8-1.4-3.2-3.2-3.2h-63.9c-1.8,0-3.2,1.4-3.2,3.2v62c0,0,0,0,0,0.1
						C533.4,1051.1,533.4,1051.3,533.5,1051.6C533.5,1051.5,533.5,1051.6,533.5,1051.6z M556.5,1066.2l-12.1-12.1h12.1V1066.2z
						 M539.8,992.1h57.5v78.6h-34.4v-19.9c0-1.8-1.4-3.2-3.2-3.2h-19.9V992.1z"/>
					<path id="XMLID_84_" class="st5" d="M587.2,1005.2c1.8,0,3.2-1.4,3.2-3.2c0-1.8-1.4-3.2-3.2-3.2H550c-1.8,0-3.2,1.4-3.2,3.2
						c0,1.8,1.4,3.2,3.2,3.2H587.2z"/>
					<path id="XMLID_88_" class="st5" d="M587.2,1015.8c1.8,0,3.2-1.4,3.2-3.2c0-1.8-1.4-3.2-3.2-3.2H550c-1.8,0-3.2,1.4-3.2,3.2
						c0,1.8,1.4,3.2,3.2,3.2H587.2z"/>
					<path id="XMLID_91_" class="st5" d="M587.2,1025.8c1.8,0,3.2-1.4,3.2-3.2s-1.4-3.2-3.2-3.2H550c-1.8,0-3.2,1.4-3.2,3.2
						s1.4,3.2,3.2,3.2H587.2z"/>
					<path id="XMLID_100_" class="st5" d="M587.2,1035.6c1.8,0,3.2-1.4,3.2-3.2c0-1.8-1.4-3.2-3.2-3.2H550c-1.8,0-3.2,1.4-3.2,3.2
						c0,1.8,1.4,3.2,3.2,3.2H587.2z"/>
				</g>
				<path id="XMLID_119_" class="st5" d="M1059.7,740.6c-10.4,0-18.9,8.5-18.9,18.9c0,10.4,8.5,18.9,18.9,18.9
					c4.3,0,8.3-1.5,11.5-3.9l16.8,14.6c-0.2,0.9-0.3,1.8-0.3,2.7c0,6.1,4.9,11,11,11s11-4.9,11-11c0-6.1-4.9-11-11-11
					c-3.2,0-6,1.3-8,3.5l-15.7-13.6c2.3-3.1,3.6-6.9,3.6-11.1c0-4.1-1.3-8-3.6-11.1l15.7-13.6c2,2.1,4.9,3.5,8,3.5
					c6.1,0,11-4.9,11-11c0-6.1-4.9-11-11-11s-11,4.9-11,11c0,0.9,0.1,1.8,0.3,2.7l-16.8,14.6C1068,742.1,1064,740.6,1059.7,740.6z
					 M1098.7,786.2c3.1,0,5.6,2.5,5.6,5.6c0,3.1-2.5,5.6-5.6,5.6c-3.1,0-5.6-2.5-5.6-5.6C1093.1,788.7,1095.6,786.2,1098.7,786.2z
					 M1098.7,721.6c3.1,0,5.6,2.5,5.6,5.6c0,3.1-2.5,5.6-5.6,5.6c-3.1,0-5.6-2.5-5.6-5.6C1093.1,724.2,1095.6,721.6,1098.7,721.6z
					 M1059.7,773c-7.4,0-13.5-6-13.5-13.5c0-7.4,6-13.5,13.5-13.5c7.4,0,13.5,6,13.5,13.5C1073.1,766.9,1067.1,773,1059.7,773z"/>
				<g id="XMLID_18_">
					<path id="XMLID_164_" class="st5" d="M848,884c2,0,3.6-1.6,3.6-3.6v-30.8c0-2-1.6-3.6-3.6-3.6H727.3c-2,0-3.6,1.6-3.6,3.6v30.8
						c0,2,1.6,3.6,3.6,3.6h65.2c0.6,4.8,2.7,9.5,6.4,13.3c4.4,4.4,10.2,6.6,15.9,6.6c4.6,0,9.3-1.4,13.2-4.3l15.5,15.5
						c0.7,0.7,1.6,1,2.5,1c0.9,0,1.8-0.3,2.5-1c1.4-1.4,1.4-3.7,0-5.1l-15.5-15.5c2.3-3.2,3.7-6.8,4.1-10.5H848z M825.7,892.2
						c-6,6-15.7,6-21.7,0c-6-6-6-15.7,0-21.7c3-3,6.9-4.5,10.9-4.5c3.9,0,7.9,1.5,10.9,4.5C831.7,876.5,831.7,886.2,825.7,892.2z
						 M830.7,865.5c-8.8-8.8-23.1-8.8-31.8,0c-3.2,3.2-5.3,7.2-6.1,11.4h-61.9v-23.6h113.5v23.6h-7.5
						C836,872.7,834,868.7,830.7,865.5z"/>
					<circle id="XMLID_34_" class="st5" cx="744.3" cy="865.1" r="4.1"/>
					<circle id="XMLID_120_" class="st5" cx="758" cy="865.1" r="4.1"/>
					<circle id="XMLID_157_" class="st5" cx="771.8" cy="865.1" r="4.1"/>
				</g>
				<g id="XMLID_17_">
					<path id="XMLID_172_" class="st5" d="M1269,1082.5h-75.1c-1.9,0-3.5,1.6-3.5,3.5v59.1c0,0,0,0,0,0c0,0.2,0,0.4,0.1,0.6
						c0,0,0,0,0,0c0,0.2,0.1,0.4,0.2,0.6c0,0,0,0.1,0,0.1c0.1,0.2,0.2,0.3,0.3,0.5c0,0,0,0.1,0.1,0.1c0,0,0.1,0.1,0.1,0.1
						c0.1,0.1,0.2,0.2,0.3,0.3c0,0,0,0,0,0c0.1,0.1,0.3,0.3,0.4,0.4c0,0,0.1,0,0.1,0.1c0.2,0.1,0.3,0.2,0.5,0.3c0,0,0.1,0,0.1,0.1
						c0.2,0.1,0.4,0.1,0.6,0.2c0,0,0.1,0,0.1,0c0.2,0,0.4,0.1,0.6,0.1h54.4c0.6,0.8,1.2,1.5,1.9,2.2c3.8,3.8,8.7,5.6,13.6,5.6
						c3.8,0,7.6-1.1,10.9-3.4l12.6,12.6c0.7,0.7,1.6,1,2.5,1s1.8-0.3,2.5-1c1.4-1.4,1.4-3.6,0-5l-12.6-12.6
						c4.6-6.7,4.5-15.6-0.2-22.2c0-0.1,0-0.1,0.1-0.1l6.8-27.2c0.3-1.1,0-2.2-0.6-3c-0.7-0.9-1.7-1.4-2.8-1.4h-10.5v-8.2
						C1272.6,1084.1,1271,1082.5,1269,1082.5z M1197.5,1089.6h68v4.7h-59.6c-1.6,0-3,1.1-3.4,2.7l-5,19.8V1089.6z M1272.6,1145.9
						c-4.8,4.8-12.5,4.8-17.3,0c-4.8-4.8-4.8-12.5,0-17.3c2.4-2.4,5.5-3.6,8.7-3.6s6.3,1.2,8.7,3.6
						C1277.3,1133.4,1277.3,1141.1,1272.6,1145.9z M1278.5,1101.3l-4.9,19.3c-7.4-4.3-17.1-3.3-23.4,3c-4.9,4.9-6.6,11.8-5.1,18
						h-46.7l10.1-40.3H1278.5z"/>
				</g>
				<g>
					<linearGradient id="SVGID_5_" gradientUnits="userSpaceOnUse" x1="624.0488" y1="713.7479" x2="695.526" y2="802.8617">
						<stop  offset="0" style="stop-color:#51F2ED"/>
						<stop  offset="1" style="stop-color:#35CFDB"/>
					</linearGradient>
					<path class="st14" d="M655.1,758.2h34.7c-0.2,9.8-1.2,20.6-3.4,32.2c-8.7,1.5-19.3,2.6-31.3,2.6V758.2z M687.2,723.3
						c-0.2,0-0.5-0.1-0.7-0.1c-8.7-1.5-19.3-2.6-31.3-2.6v34.7h34.7c0.1-12.1-1-22.6-2.6-31.3C687.3,723.8,687.2,723.5,687.2,723.3z
						 M620.6,721c5.8-1.1,11.5-1.9,17.3-2.4c4.8-0.5,9.6-0.7,14.4-0.8v-34.8c-7.3,0.1-14.3,1.4-20.8,3.7
						C628.5,693,623.8,704.9,620.6,721z M621.4,792.7c1.3,6.5,3,13.2,5.1,20.2c7.9,3.5,16.6,5.5,25.7,5.6v-22.7
						c-4.8-0.1-9.6-0.4-14.4-0.8C632.4,794.4,626.9,793.7,621.4,792.7z M617.5,755.3h34.7v-34.7c-9.8,0.2-20.6,1.2-32.2,3.4
						C618.6,732.8,617.5,743.3,617.5,755.3z M691.9,772.5c-0.5,5.7-1.4,11.5-2.4,17.3c9.4-1.8,17.4-4.2,23.7-6.5
						c4.2-7.6,7-16.1,8-25.2h-28.4C692.6,762.9,692.3,767.7,691.9,772.5z M620.8,789.6c11.3,2.1,21.8,3.1,31.4,3.3v-34.7h-34.7
						C617.8,767.8,618.7,778.3,620.8,789.6z M655.1,682.9v34.8c10.7-0.1,21.2,0.8,31.5,2.6c-3.1-15.8-7.8-27.4-10.7-33.6
						C669.4,684.4,662.4,683.1,655.1,682.9z M679.7,688.1c3,6.9,7.1,18.1,9.9,32.7c11.9,2.3,21.4,5.3,28.3,8.1
						C711.6,710.4,697.6,695.6,679.7,688.1z M589.4,729.3c9.4-3.2,18.9-5.8,28.3-7.7c2.8-15,7-26.4,10-33.5
						C609.7,695.6,595.6,710.6,589.4,729.3z M596.1,786.4c6.5,10.5,15.9,19.1,27,24.8c-1.9-6.4-3.4-12.8-4.7-19.1
						C610.9,790.6,603.5,788.7,596.1,786.4z M684.3,811.2c10.8-5.5,20-13.8,26.5-24c-6.1,2-13.4,4.1-22,5.6
						C687.7,798.9,686.1,805.1,684.3,811.2z M690.2,723.8c1.8,10.3,2.6,20.8,2.6,31.5h28.6c0.1-1.5,0.2-3.1,0.2-4.6
						c0-6.3-0.9-12.5-2.5-18.3C712.3,729.7,702.5,726.3,690.2,723.8z M655.1,795.8v22.7c9.1-0.2,17.8-2.2,25.7-5.6
						c2.1-6.7,3.7-13.2,5-19.5c-9.8,1.6-19.7,2.5-29.8,2.5C655.7,795.8,655.4,795.8,655.1,795.8z M585.9,750.7
						c0,1.6,0.1,3.1,0.2,4.6h28.6c0-10.4,0.8-20.7,2.5-30.7c-9.1,1.9-18.8,4.5-28.8,8C586.8,738.4,585.9,744.5,585.9,750.7z
						 M614.7,758.2h-28.4c1,8.8,3.6,17.1,7.6,24.6c8.3,2.7,16.2,4.7,23.9,6.3c-1-5.5-1.8-11-2.3-16.5
						C615.1,767.7,614.8,762.9,614.7,758.2z"/>
					<path class="st5" d="M653.7,665.6c-47,0-85.1,38.1-85.1,85.1c0,47,38.1,85.1,85.1,85.1s85.1-38.1,85.1-85.1
						C738.8,703.7,700.7,665.6,653.7,665.6z M653.7,828.3c-42.8,0-77.6-34.7-77.6-77.6c0-42.8,34.7-77.6,77.6-77.6
						c42.8,0,77.6,34.7,77.6,77.6C731.3,793.6,696.5,828.3,653.7,828.3z"/>
				</g>
				<g>
					<linearGradient id="SVGID_6_" gradientUnits="userSpaceOnUse" x1="1054.4308" y1="858.5686" x2="1054.4308" y2="1013.0107">
						<stop  offset="0" style="stop-color:#7E5BFF"/>
						<stop  offset="1" style="stop-color:#5C41E5"/>
					</linearGradient>
					<path class="st15" d="M1251.5,982.4c0-32.3-23.8-59.1-54.8-63.8c-7.1-31.2-35-54.6-68.4-54.6c-3.1,0-6.2,0.2-9.3,0.6
						c-15.8-34-50.3-57.5-90.3-57.5c-53.7,0-97.5,42.5-99.5,95.8c0,0-0.1,0-0.1,0c-39.8,0-72,32.2-72,72c0,39.2,31.3,71.1,70.3,72
						l0,0h262.5l0-0.1C1224.3,1045.2,1251.5,1017,1251.5,982.4z"/>
					<path class="st12" d="M961,904.4c0.2-20.9,9.6-41,25.5-54.5c16.1-13.7,38.9-19.3,59.6-15.3c3.5,0.7,7.1-1,8.1-4.6
						c0.9-3.2-1.1-7.4-4.6-8.1c-19.7-3.9-40.1-0.9-57.8,8.6c-17.1,9.2-30.1,24.4-37.5,42.3c-4.2,10-6.3,20.8-6.4,31.6
						C947.8,912.9,961,912.9,961,904.4L961,904.4z"/>
				</g>
				<g>
					<linearGradient id="SVGID_7_" gradientUnits="userSpaceOnUse" x1="1344.3547" y1="1179.3611" x2="1407.6906" y2="1258.0187">
						<stop  offset="0" style="stop-color:#7E5BFF"/>
						<stop  offset="1" style="stop-color:#5C41E5"/>
					</linearGradient>
					<path class="st16" d="M1408.3,1133.1H1327c-1.5,0-2.8,1.3-2.8,2.8V1282c0,1.5,1.3,2.8,2.8,2.8h111.9c1.5,0,2.8-1.3,2.8-2.8
						v-110.4L1408.3,1133.1z"/>
					<path class="st12" d="M1408.3,1133.1l33.4,39.1h-30.4c-1.7,0-3-1.3-3-3V1133.1z"/>
					<path id="XMLID_2_" class="st5" d="M1364.2,1216.1c-11.8,4-19.1,13.8-16.4,22c2.7,8.2,14.5,11.6,26.3,7.6
						c10.4-3.5,17.3-11.5,16.9-19c0-0.1,0-0.2,0-0.2v-33.9c24.7-3.8,21.8,11.3,21.8,11.3c2-0.7,5.8-1.9,5.7-7.9
						c-0.4-11.6-27.7-15.3-32.9-15.9l-1.3-0.7c0,0.2,0.2,1.4,0.2,1.7v36.1C1379.6,1214.1,1371.9,1213.5,1364.2,1216.1z"/>
				</g>
				<g>
					<path class="st5" d="M522.4,1299.7l17,14.8c1.4,1.2,3.4,1,4.6-0.3l20-23l11.9,13.7c1.5,1.7,4.3,0.9,4.7-1.3l10.5-62.6
						c0.3-1.7-1.3-3.1-2.9-2.6l-60.6,18.9c-2.2,0.7-2.6,3.6-0.7,4.8l15.2,9.9l-20,22.9C520.9,1296.4,521.1,1298.5,522.4,1299.7z"/>
				</g>
				<g>
					<path class="st17" d="M653.7,854.7c-1.7,0-3-1.3-3-3v-4c0-1.7,1.3-3,3-3s3,1.3,3,3v4C656.7,853.3,655.4,854.7,653.7,854.7z"/>
					<path class="st17" d="M653.7,941.4c-1.7,0-3-1.3-3-3v-8.3c0-1.7,1.3-3,3-3s3,1.3,3,3v8.3C656.7,940.1,655.4,941.4,653.7,941.4z
						 M653.7,912.5c-1.7,0-3-1.3-3-3v-8.3c0-1.7,1.3-3,3-3s3,1.3,3,3v8.3C656.7,911.2,655.4,912.5,653.7,912.5z M653.7,883.6
						c-1.7,0-3-1.3-3-3v-8.3c0-1.7,1.3-3,3-3s3,1.3,3,3v8.3C656.7,882.3,655.4,883.6,653.7,883.6z"/>
					<path class="st17" d="M657.7,966.1h-4c-1.7,0-3-1.3-3-3v-4c0-1.7,1.3-3,3-3s3,1.3,3,3v1h1c1.7,0,3,1.3,3,3
						S659.4,966.1,657.7,966.1z"/>
					<path class="st17" d="M818,966.1h-7.6c-1.7,0-3-1.3-3-3s1.3-3,3-3h7.6c1.7,0,3,1.3,3,3S819.6,966.1,818,966.1z M791.3,966.1
						h-7.6c-1.7,0-3-1.3-3-3s1.3-3,3-3h7.6c1.7,0,3,1.3,3,3S792.9,966.1,791.3,966.1z M764.5,966.1h-7.6c-1.7,0-3-1.3-3-3s1.3-3,3-3
						h7.6c1.7,0,3,1.3,3,3S766.2,966.1,764.5,966.1z M737.8,966.1h-7.6c-1.7,0-3-1.3-3-3s1.3-3,3-3h7.6c1.7,0,3,1.3,3,3
						S739.5,966.1,737.8,966.1z M711.1,966.1h-7.6c-1.7,0-3-1.3-3-3s1.3-3,3-3h7.6c1.7,0,3,1.3,3,3S712.8,966.1,711.1,966.1z
						 M684.4,966.1h-7.6c-1.7,0-3-1.3-3-3s1.3-3,3-3h7.6c1.7,0,3,1.3,3,3S686.1,966.1,684.4,966.1z"/>
					<path class="st17" d="M841,966.1h-4c-1.7,0-3-1.3-3-3s1.3-3,3-3h4c1.7,0,3,1.3,3,3S842.7,966.1,841,966.1z"/>
				</g>
				<path class="st12" d="M1221.2,1320.2h-0.9c-1.7,0-3-1.3-3-3c0-0.8,0.4-1.6,0.9-2.2v-4.9c0-1.7,1.3-3,3-3s3,1.3,3,3v7.1
					C1224.2,1318.9,1222.9,1320.2,1221.2,1320.2z M1200.3,1320.2h-8c-1.7,0-3-1.3-3-3s1.3-3,3-3h8c1.7,0,3,1.3,3,3
					S1201.9,1320.2,1200.3,1320.2z M1172.3,1320.2h-8c-1.7,0-3-1.3-3-3s1.3-3,3-3h8c1.7,0,3,1.3,3,3S1173.9,1320.2,1172.3,1320.2z
					 M1144.3,1320.2h-8c-1.7,0-3-1.3-3-3s1.3-3,3-3h8c1.7,0,3,1.3,3,3S1145.9,1320.2,1144.3,1320.2z M1116.3,1320.2h-8
					c-1.7,0-3-1.3-3-3s1.3-3,3-3h8c1.7,0,3,1.3,3,3S1117.9,1320.2,1116.3,1320.2z M1088.3,1320.2h-8c-1.7,0-3-1.3-3-3s1.3-3,3-3h8
					c1.7,0,3,1.3,3,3S1089.9,1320.2,1088.3,1320.2z M1060.3,1320.2h-8c-1.7,0-3-1.3-3-3s1.3-3,3-3h8c1.7,0,3,1.3,3,3
					S1061.9,1320.2,1060.3,1320.2z M1032.3,1320.2h-8c-1.7,0-3-1.3-3-3s1.3-3,3-3h8c1.7,0,3,1.3,3,3S1033.9,1320.2,1032.3,1320.2z
					 M1004.3,1320.2h-8c-1.7,0-3-1.3-3-3s1.3-3,3-3h8c1.7,0,3,1.3,3,3S1005.9,1320.2,1004.3,1320.2z M976.3,1320.2h-8
					c-1.7,0-3-1.3-3-3s1.3-3,3-3h8c1.7,0,3,1.3,3,3S977.9,1320.2,976.3,1320.2z M948.3,1320.2h-8c-1.7,0-3-1.3-3-3s1.3-3,3-3h8
					c1.7,0,3,1.3,3,3S949.9,1320.2,948.3,1320.2z M920.3,1320.2h-8c-1.7,0-3-1.3-3-3s1.3-3,3-3h8c1.7,0,3,1.3,3,3
					S921.9,1320.2,920.3,1320.2z M892.3,1320.2h-8c-1.7,0-3-1.3-3-3s1.3-3,3-3h8c1.7,0,3,1.3,3,3S893.9,1320.2,892.3,1320.2z
					 M864.3,1320.2h-8c-1.7,0-3-1.3-3-3s1.3-3,3-3h8c1.7,0,3,1.3,3,3S865.9,1320.2,864.3,1320.2z M836.3,1320.2h-8c-1.7,0-3-1.3-3-3
					s1.3-3,3-3h8c1.7,0,3,1.3,3,3S837.9,1320.2,836.3,1320.2z M808.3,1320.2h-8c-1.7,0-3-1.3-3-3s1.3-3,3-3h8c1.7,0,3,1.3,3,3
					S809.9,1320.2,808.3,1320.2z M780.3,1320.2h-8c-1.7,0-3-1.3-3-3s1.3-3,3-3h8c1.7,0,3,1.3,3,3S781.9,1320.2,780.3,1320.2z
					 M752.3,1320.2h-8c-1.7,0-3-1.3-3-3s1.3-3,3-3h8c1.7,0,3,1.3,3,3S753.9,1320.2,752.3,1320.2z M724.3,1320.2h-8c-1.7,0-3-1.3-3-3
					s1.3-3,3-3h8c1.7,0,3,1.3,3,3S725.9,1320.2,724.3,1320.2z M709.4,1307.1c-1.7,0-3-1.3-3-3v-8c0-1.7,1.3-3,3-3s3,1.3,3,3v8
					C712.4,1305.8,711,1307.1,709.4,1307.1z M1221.2,1293.1c-1.7,0-3-1.3-3-3v-8c0-1.7,1.3-3,3-3s3,1.3,3,3v8
					C1224.2,1291.8,1222.9,1293.1,1221.2,1293.1z M709.4,1279.1c-1.7,0-3-1.3-3-3v-8c0-1.7,1.3-3,3-3s3,1.3,3,3v8
					C712.4,1277.8,711,1279.1,709.4,1279.1z M1221.2,1265.1c-1.7,0-3-1.3-3-3v-8c0-1.7,1.3-3,3-3s3,1.3,3,3v8
					C1224.2,1263.8,1222.9,1265.1,1221.2,1265.1z M709.4,1251.1c-1.7,0-3-1.3-3-3v-8c0-1.7,1.3-3,3-3s3,1.3,3,3v8
					C712.4,1249.8,711,1251.1,709.4,1251.1z M1221.2,1237.1c-1.7,0-3-1.3-3-3v-8c0-1.7,1.3-3,3-3s3,1.3,3,3v8
					C1224.2,1235.8,1222.9,1237.1,1221.2,1237.1z M709.4,1223.1c-1.7,0-3-1.3-3-3v-8c0-1.7,1.3-3,3-3s3,1.3,3,3v8
					C712.4,1221.8,711,1223.1,709.4,1223.1z M1297.7,1221.6h-8c-1.7,0-3-1.3-3-3s1.3-3,3-3h8c1.7,0,3,1.3,3,3
					S1299.4,1221.6,1297.7,1221.6z M1269.7,1221.6h-8c-1.7,0-3-1.3-3-3s1.3-3,3-3h8c1.7,0,3,1.3,3,3S1271.4,1221.6,1269.7,1221.6z
					 M1241.7,1221.6h-8c-1.7,0-3-1.3-3-3s1.3-3,3-3h8c1.7,0,3,1.3,3,3S1243.4,1221.6,1241.7,1221.6z M709.4,1195.1c-1.7,0-3-1.3-3-3
					v-8c0-1.7,1.3-3,3-3s3,1.3,3,3v8C712.4,1193.8,711,1195.1,709.4,1195.1z M709.4,1167.1c-1.7,0-3-1.3-3-3v-8c0-1.7,1.3-3,3-3
					s3,1.3,3,3v8C712.4,1165.8,711,1167.1,709.4,1167.1z M709.4,1139.1c-1.7,0-3-1.3-3-3v-8c0-1.7,1.3-3,3-3s3,1.3,3,3v8
					C712.4,1137.8,711,1139.1,709.4,1139.1z M709.4,1111.1c-1.7,0-3-1.3-3-3v-8c0-1.7,1.3-3,3-3s3,1.3,3,3v8
					C712.4,1109.8,711,1111.1,709.4,1111.1z M709.4,1083.1c-1.7,0-3-1.3-3-3v-8c0-1.7,1.3-3,3-3s3,1.3,3,3v8
					C712.4,1081.8,711,1083.1,709.4,1083.1z M709.4,1055.1c-1.7,0-3-1.3-3-3v-8c0-1.7,1.3-3,3-3s3,1.3,3,3v8
					C712.4,1053.8,711,1055.1,709.4,1055.1z M709.4,1027.1c-1.7,0-3-1.3-3-3v-8c0-1.7,1.3-3,3-3s3,1.3,3,3v8
					C712.4,1025.8,711,1027.1,709.4,1027.1z M709.4,999.1c-1.7,0-3-1.3-3-3v-8c0-1.7,1.3-3,3-3s3,1.3,3,3v8
					C712.4,997.8,711,999.1,709.4,999.1z M845.3,987h-8c-1.7,0-3-1.3-3-3s1.3-3,3-3h8c1.7,0,3,1.3,3,3S846.9,987,845.3,987z
					 M817.3,987h-8c-1.7,0-3-1.3-3-3s1.3-3,3-3h8c1.7,0,3,1.3,3,3S818.9,987,817.3,987z M789.3,987h-8c-1.7,0-3-1.3-3-3s1.3-3,3-3h8
					c1.7,0,3,1.3,3,3S790.9,987,789.3,987z M761.3,987h-8c-1.7,0-3-1.3-3-3s1.3-3,3-3h8c1.7,0,3,1.3,3,3S762.9,987,761.3,987z
					 M733.3,987h-8c-1.7,0-3-1.3-3-3s1.3-3,3-3h8c1.7,0,3,1.3,3,3S734.9,987,733.3,987z"/>
				<path class="st17" d="M990.6,1155.6h-8c-1.7,0-3-1.3-3-3s1.3-3,3-3h8c1.7,0,3,1.3,3,3S992.2,1155.6,990.6,1155.6z M962.6,1155.6
					h-8c-1.7,0-3-1.3-3-3s1.3-3,3-3h8c1.7,0,3,1.3,3,3S964.2,1155.6,962.6,1155.6z M934.6,1155.6h-8c-1.7,0-3-1.3-3-3s1.3-3,3-3h8
					c1.7,0,3,1.3,3,3S936.2,1155.6,934.6,1155.6z M906.6,1155.6h-8c-1.7,0-3-1.3-3-3s1.3-3,3-3h8c1.7,0,3,1.3,3,3
					S908.2,1155.6,906.6,1155.6z M878.6,1155.6h-8c-1.7,0-3-1.3-3-3s1.3-3,3-3h8c1.7,0,3,1.3,3,3S880.2,1155.6,878.6,1155.6z
					 M850.6,1155.6h-8c-1.7,0-3-1.3-3-3s1.3-3,3-3h8c1.7,0,3,1.3,3,3S852.2,1155.6,850.6,1155.6z M822.6,1155.6h-8c-1.7,0-3-1.3-3-3
					s1.3-3,3-3h8c1.7,0,3,1.3,3,3S824.2,1155.6,822.6,1155.6z M1005,1150c-1.7,0-3-1.3-3-3v-8c0-1.7,1.3-3,3-3s3,1.3,3,3v8
					C1008,1148.6,1006.6,1150,1005,1150z M1005,1122c-1.7,0-3-1.3-3-3v-8c0-1.7,1.3-3,3-3s3,1.3,3,3v8
					C1008,1120.6,1006.6,1122,1005,1122z M1005,1094c-1.7,0-3-1.3-3-3v-8c0-1.7,1.3-3,3-3s3,1.3,3,3v8
					C1008,1092.6,1006.6,1094,1005,1094z M1005,1066c-1.7,0-3-1.3-3-3v-8c0-1.7,1.3-3,3-3s3,1.3,3,3v8
					C1008,1064.6,1006.6,1066,1005,1066z"/>
				<path class="st13" d="M1305.5,1187h-8c-1.7,0-3-1.3-3-3s1.3-3,3-3h8c1.7,0,3,1.3,3,3S1307.2,1187,1305.5,1187z M1277.5,1187h-8
					c-1.7,0-3-1.3-3-3s1.3-3,3-3h8c1.7,0,3,1.3,3,3S1279.2,1187,1277.5,1187z M1249.5,1187h-8c-1.7,0-3-1.3-3-3s1.3-3,3-3h8
					c1.7,0,3,1.3,3,3S1251.2,1187,1249.5,1187z M1221.5,1187h-8c-1.7,0-3-1.3-3-3s1.3-3,3-3h8c1.7,0,3,1.3,3,3
					S1223.2,1187,1221.5,1187z M1193.5,1187h-8c-1.7,0-3-1.3-3-3s1.3-3,3-3h8c1.7,0,3,1.3,3,3S1195.2,1187,1193.5,1187z
					 M1165.5,1187h-8c-1.7,0-3-1.3-3-3s1.3-3,3-3h8c1.7,0,3,1.3,3,3S1167.2,1187,1165.5,1187z M1137.5,1187h-8c-1.7,0-3-1.3-3-3
					s1.3-3,3-3h8c1.7,0,3,1.3,3,3S1139.2,1187,1137.5,1187z M1109.5,1187h-8c-1.7,0-3-1.3-3-3s1.3-3,3-3h8c1.7,0,3,1.3,3,3
					S1111.2,1187,1109.5,1187z M1081.5,1187h-8c-1.7,0-3-1.3-3-3s1.3-3,3-3h8c1.7,0,3,1.3,3,3S1083.2,1187,1081.5,1187z
					 M1053.5,1187h-8c-1.7,0-3-1.3-3-3s1.3-3,3-3h8c1.7,0,3,1.3,3,3S1055.2,1187,1053.5,1187z M1034.6,1178c-1.7,0-3-1.3-3-3v-8
					c0-1.7,1.3-3,3-3s3,1.3,3,3v8C1037.6,1176.6,1036.2,1178,1034.6,1178z M1034.6,1150c-1.7,0-3-1.3-3-3v-8c0-1.7,1.3-3,3-3
					s3,1.3,3,3v8C1037.6,1148.6,1036.2,1150,1034.6,1150z M1034.6,1122c-1.7,0-3-1.3-3-3v-8c0-1.7,1.3-3,3-3s3,1.3,3,3v8
					C1037.6,1120.6,1036.2,1122,1034.6,1122z M1034.6,1094c-1.7,0-3-1.3-3-3v-8c0-1.7,1.3-3,3-3s3,1.3,3,3v8
					C1037.6,1092.6,1036.2,1094,1034.6,1094z M1034.6,1066c-1.7,0-3-1.3-3-3v-8c0-1.7,1.3-3,3-3s3,1.3,3,3v8
					C1037.6,1064.6,1036.2,1066,1034.6,1066z"/>
				<path class="st17" d="M1159.3,832h-8c-1.7,0-3-1.3-3-3s1.3-3,3-3h8c1.7,0,3,1.3,3,3S1160.9,832,1159.3,832z M1131.3,832h-6.1
					c-1.7,0-3-1.3-3-3s1.3-3,3-3h6.1c1.7,0,3,1.3,3,3S1132.9,832,1131.3,832z M1167,819.6c-1.7,0-3-1.3-3-3v-8c0-1.7,1.3-3,3-3
					s3,1.3,3,3v8C1170,818.3,1168.6,819.6,1167,819.6z M1167,791.6c-1.7,0-3-1.3-3-3v-8c0-1.7,1.3-3,3-3s3,1.3,3,3v8
					C1170,790.3,1168.6,791.6,1167,791.6z M1167,763.6c-1.7,0-3-1.3-3-3v-8c0-1.7,1.3-3,3-3s3,1.3,3,3v8
					C1170,762.3,1168.6,763.6,1167,763.6z"/>
				<path class="st18" d="M1373.6,1115.9c-1.7,0-3-1.3-3-3v-8c0-1.7,1.3-3,3-3s3,1.3,3,3v8
					C1376.6,1114.5,1375.3,1115.9,1373.6,1115.9z M1373.6,1087.9c-1.7,0-3-1.3-3-3v-8c0-1.7,1.3-3,3-3s3,1.3,3,3v8
					C1376.6,1086.5,1375.3,1087.9,1373.6,1087.9z M1372,1061.5h-8c-1.7,0-3-1.3-3-3s1.3-3,3-3h8c1.7,0,3,1.3,3,3
					S1373.6,1061.5,1372,1061.5z M1344,1061.5h-8c-1.7,0-3-1.3-3-3s1.3-3,3-3h8c1.7,0,3,1.3,3,3S1345.6,1061.5,1344,1061.5z
					 M1316,1061.5h-8c-1.7,0-3-1.3-3-3s1.3-3,3-3h8c1.7,0,3,1.3,3,3S1317.6,1061.5,1316,1061.5z M1302.3,1047.1c-1.7,0-3-1.3-3-3v-8
					c0-1.7,1.3-3,3-3s3,1.3,3,3v8C1305.3,1045.8,1304,1047.1,1302.3,1047.1z M1302.3,1019.1c-1.7,0-3-1.3-3-3v-8c0-1.7,1.3-3,3-3
					s3,1.3,3,3v8C1305.3,1017.8,1304,1019.1,1302.3,1019.1z M1302.3,991.1c-1.7,0-3-1.3-3-3v-8c0-1.7,1.3-3,3-3s3,1.3,3,3v8
					C1305.3,989.8,1304,991.1,1302.3,991.1z M1302.3,963.1c-1.7,0-3-1.3-3-3v-8c0-1.7,1.3-3,3-3s3,1.3,3,3v8
					C1305.3,961.8,1304,963.1,1302.3,963.1z M1302.3,935.1c-1.7,0-3-1.3-3-3v-8c0-1.7,1.3-3,3-3s3,1.3,3,3v8
					C1305.3,933.8,1304,935.1,1302.3,935.1z M1302.3,907.1c-1.7,0-3-1.3-3-3v-8c0-1.7,1.3-3,3-3s3,1.3,3,3v8
					C1305.3,905.8,1304,907.1,1302.3,907.1z M1302.3,879.1c-1.7,0-3-1.3-3-3V876h-1.8c-1.7,0-3-1.3-3-3s1.3-3,3-3h4.8
					c1.7,0,3,1.3,3,3v3.2C1305.3,877.8,1304,879.1,1302.3,879.1z M1277.5,876h-8c-1.7,0-3-1.3-3-3s1.3-3,3-3h8c1.7,0,3,1.3,3,3
					S1279.2,876,1277.5,876z M1249.5,876h-8c-1.7,0-3-1.3-3-3s1.3-3,3-3h8c1.7,0,3,1.3,3,3S1251.2,876,1249.5,876z M1236.5,861
					c-1.7,0-3-1.3-3-3v-8c0-1.7,1.3-3,3-3s3,1.3,3,3v8C1239.5,859.7,1238.1,861,1236.5,861z M1236.5,833c-1.7,0-3-1.3-3-3v-8
					c0-1.7,1.3-3,3-3s3,1.3,3,3v8C1239.5,831.7,1238.1,833,1236.5,833z M1236.5,805c-1.7,0-3-1.3-3-3v-8c0-1.7,1.3-3,3-3s3,1.3,3,3
					v8C1239.5,803.7,1238.1,805,1236.5,805z M1236.5,777c-1.7,0-3-1.3-3-3v-8c0-1.7,1.3-3,3-3s3,1.3,3,3v8
					C1239.5,775.7,1238.1,777,1236.5,777z"/>
				<g>
					<linearGradient id="SVGID_8_" gradientUnits="userSpaceOnUse" x1="709.353" y1="1171.7657" x2="709.353" y2="1207.9684">
						<stop  offset="0" style="stop-color:#B92BF1"/>
						<stop  offset="1" style="stop-color:#951DCE"/>
					</linearGradient>
					<rect x="631.1" y="1124.9" class="st19" width="156.5" height="93.7"/>
					
						<linearGradient id="SVGID_9_" gradientUnits="userSpaceOnUse" x1="-6894.5322" y1="490.6281" x2="-6945.3696" y2="490.6281" gradientTransform="matrix(-1 0 0 -1 -6147.5923 1662.3939)">
						<stop  offset="0" style="stop-color:#B92BF1"/>
						<stop  offset="1" style="stop-color:#951DCE"/>
					</linearGradient>
					<polygon class="st20" points="787.6,1218.6 709.4,1171.8 787.6,1124.9 					"/>
					
						<linearGradient id="SVGID_10_" gradientUnits="userSpaceOnUse" x1="-6827.0396" y1="490.6281" x2="-6771.6772" y2="490.6281" gradientTransform="matrix(-1 0 0 -1 -6147.5923 1662.3939)">
						<stop  offset="0" style="stop-color:#B92BF1"/>
						<stop  offset="1" style="stop-color:#951DCE"/>
					</linearGradient>
					<polygon class="st21" points="631.1,1218.6 709.4,1171.8 631.1,1124.9 					"/>
					
						<linearGradient id="SVGID_11_" gradientUnits="userSpaceOnUse" x1="-6856.9458" y1="1402.1985" x2="-6856.9458" y2="1434.3577" gradientTransform="matrix(-1 0 0 1.0197 -6147.5928 -348.7737)">
						<stop  offset="0" style="stop-color:#B92BF1"/>
						<stop  offset="1" style="stop-color:#951DCE"/>
					</linearGradient>
					<path class="st22" d="M787.6,1124.9H631.1l75.4-52.5c1.7-1.2,4-1.2,5.7,0L787.6,1124.9z"/>
					<path class="st23" d="M631.1,1124.9c1.7,1,157.9-0.8,156.5,0c-1.3,0.8-78.3,46.9-78.3,46.9L631.1,1124.9z"/>
				</g>
			</g>
			<circle class="st18" cx="445.4" cy="581.7" r="8.4"/>
			<circle class="st24" cx="480" cy="581.7" r="8.4"/>
			<circle class="st5" cx="515.1" cy="581.7" r="8.4"/>
			<g>
				<g>
					
						<linearGradient id="SVGID_12_" gradientUnits="userSpaceOnUse" x1="-6911.8247" y1="976.282" x2="-6911.8247" y2="1136.0642" gradientTransform="matrix(-0.998 6.279204e-02 6.279204e-02 0.998 -5453.9224 192.1621)">
						<stop  offset="0" style="stop-color:#FFC5C5"/>
						<stop  offset="1" style="stop-color:#EA8CA7"/>
					</linearGradient>
					<path class="st25" d="M1599.5,933.6c0,0-74.9-28.3-98.3-40.1c-23.4-11.7-45.1-101.9-45.1-101.9s10-28.5-1.9-30.5
						c-11.9-2.1-32.1-0.3-26.3,16.8c5.8,17.1,25.7,111,27.1,113.1c1.4,2.1,20,43.9,20,43.9l91.9,35.7L1599.5,933.6z"/>
					<linearGradient id="SVGID_13_" gradientUnits="userSpaceOnUse" x1="1402.8318" y1="839.4931" x2="1512.3712" y2="913.8814">
						<stop  offset="0" style="stop-color:#B92BF1"/>
						<stop  offset="1" style="stop-color:#951DCE"/>
					</linearGradient>
					<path class="st26" d="M1501.2,893.5c-10.4-5.2-14.5-27.4-22.4-48.7c-9.7,6.7-30.8,10.2-37.7,9.5c4.6,20.4,11,38.9,11.6,39.8
						c1.4,2.1,22.4,40.7,22.4,40.7l91.9,35.7l32.6-37C1599.5,933.6,1524.6,905.2,1501.2,893.5z"/>
					<g>
						<path class="st27" d="M1482.7,868.3c1.3,0,2.6-0.4,3.6-1.1c-1.2-3.8-2.5-7.7-3.8-11.7c-3.4,0.1-6.2,2.9-6.2,6.4
							C1476.3,865.4,1479.2,868.3,1482.7,868.3z"/>
						<path class="st27" d="M1504.2,903.2c0,3.5,2.9,6.4,6.4,6.4c3.5,0,6.4-2.9,6.4-6.4c0-1-0.2-1.9-0.6-2.7
							c-2.8-1.2-5.4-2.4-7.8-3.4C1506.1,897.9,1504.2,900.3,1504.2,903.2z"/>
						<circle class="st27" cx="1463.4" cy="884.6" r="6.4"/>
						<circle class="st27" cx="1478.8" cy="916" r="6.4"/>
					</g>
				</g>
				<g>
					<path class="st28" d="M1393.9,696l10.1,12.1l64.2-10.2c1.3-0.2,2.5,0.7,2.8,2l14.4,91.1c0.2,1.3-0.7,2.5-2,2.8l-133.6,21.2
						c-1.3,0.2-2.5-0.7-2.8-2l-14.8-93.5l-1.9-11.7c-0.3-1.7,0.9-3.3,2.6-3.6l58.1-9.2C1392.1,694.7,1393.2,695.1,1393.9,696z"/>
					<path class="st0" d="M1479.5,784.2l-129.2,20.5L1338,727c-0.2-1.3,0.7-2.6,2-2.8l124.4-19.7c1.3-0.2,2.6,0.7,2.8,2
						L1479.5,784.2z"/>
					<path class="st5" d="M1408.7,720.6l-5.8,14.6l-64.2,10.2c-1.3,0.2-2.2,1.4-2,2.8l12,75.7c0.2,1.3,1.4,2.2,2.8,2l133.6-21.2
						c1.3-0.2,2.2-1.4,2-2.8l-12.4-78.1l-1.9-11.7c-0.3-1.7-1.9-2.9-3.6-2.6l-58.1,9.2C1410,718.8,1409.1,719.6,1408.7,720.6z"/>
				</g>
				
					<linearGradient id="SVGID_14_" gradientUnits="userSpaceOnUse" x1="-7025.0498" y1="1474.0211" x2="-7008.3223" y2="1338.2074" gradientTransform="matrix(-1 0 0 1 -5446 0)">
					<stop  offset="0" style="stop-color:#FFC5C5"/>
					<stop  offset="1" style="stop-color:#EA8CA7"/>
				</linearGradient>
				<path class="st29" d="M1610.5,1125.6c0,0,29.2,36.4,29.2,92c0,55.8-26.4,144-24.6,171.3c1.8,27.3,8.5,36.5,9.1,80.2
					c0.6,43.7-21.1,100.3-15.5,123.4c5.8,23.9,16.8,29.5,9.7,42.8c-11.4,21.7-24.5,8.2-69.6,35c-15.8,9.4-53.3,1.3-35-16.3
					c12.2-11.8,63-10.8,61.2-79.1c-1.8-68.3-20-323.5-20-323.5L1610.5,1125.6z"/>
				<linearGradient id="SVGID_15_" gradientUnits="userSpaceOnUse" x1="1622.9369" y1="1518.0992" x2="1602.1981" y2="1362.3373">
					<stop  offset="0" style="stop-color:#464392"/>
					<stop  offset="1" style="stop-color:#303075"/>
				</linearGradient>
				<path class="st30" d="M1610.5,1125.6l-55.6,125.7c0,0,18.2,255.2,20,323.5c0.1,5.6-0.1,10.9-0.6,16c10.2,0.7,29.3,1,40.8-2
					c-2.5-25.1,9.6-78.5,9-119.8c-0.6-43.7-7.3-52.9-9.1-80.2c-1.8-27.3,24.7-115.5,24.6-171.3
					C1639.7,1162,1610.5,1125.6,1610.5,1125.6z"/>
				
					<linearGradient id="SVGID_16_" gradientUnits="userSpaceOnUse" x1="-6928.6196" y1="1475.7076" x2="-6960.3379" y2="1308.1117" gradientTransform="matrix(-1 0 0 1 -5446 0)">
					<stop  offset="0" style="stop-color:#FFC5C5"/>
					<stop  offset="1" style="stop-color:#EA8CA7"/>
				</linearGradient>
				<path class="st31" d="M1557.7,874c0,0,1,41-10.3,47.8s-27.7,39-39,53.7c-11.3,14.7-14,33.8-5.8,47.2
					c8.2,13.3,16.7,29.4,19.8,51.6c3.1,22.2-0.3,66.6-12,104.2c-11.6,37.6-49.9,216.7-52.6,232.4c-2.7,15.7-24.6,174.3-32.8,200.9
					c-8.2,26.7-11.7,24.4-37.6,35.7c-14.1,6.2-45.8,14.1-29.4,21.6c16.4,7.5,32.4,7.2,40,5.7c36.3-7.1,38.2-11.4,54.6-16.8
					c16.4-5.5,14.9-15.5,6.5-38.1c-8.5-22.9,16.9-78.4,33.3-121.5c16.4-43.1,10.9-76.3,26-108.4s121.6-142.8,108.9-210.7
					c-12.3-65.6-33-65.4-29.6-95.5c3.4-30.1,26.4-85.2,17.3-120.7s-26.9-43.3-26-71.1c0.9-27.8-2.3-33.7-2.3-33.7L1557.7,874z"/>
				
					<linearGradient id="SVGID_17_" gradientUnits="userSpaceOnUse" x1="-6707.6533" y1="1412.9299" x2="-6745.0718" y2="1477.1707" gradientTransform="matrix(-0.9882 0.1534 0.1534 0.9882 -5445.1919 449.7092)">
					<stop  offset="0" style="stop-color:#FFC5C5"/>
					<stop  offset="1" style="stop-color:#EA8CA7"/>
				</linearGradient>
				<path class="st32" d="M1578.4,948.4c0,0-111.1-18.2-128.6-40.6c-17.5-22.4-56.4-64-54.4-82.7s-4.6-37.2-13.6-36.4
					s-27.3,19.5-21.1,30.8c6.2,11.3,14.3,3.9,21.8,24.8c7.5,20.9,34.7,93.7,51.1,100.9s116.4,48.6,116.4,48.6L1578.4,948.4z"/>
				
					<linearGradient id="SVGID_18_" gradientUnits="userSpaceOnUse" x1="-6967.334" y1="870.8328" x2="-7044.9326" y2="822.3496" gradientTransform="matrix(-1 0 0 1 -5446 0)">
					<stop  offset="0" style="stop-color:#FFC5C5"/>
					<stop  offset="1" style="stop-color:#EA8CA7"/>
				</linearGradient>
				<path class="st33" d="M1545,880.4c-10.6-4.1-9-19-4.5-36.8l5.9-21.2c1.3-4.6,2.6-9.1,3.7-13.6c0.1-0.5,0.3-1.1,0.4-1.6
					c7.3-25.9,38.9-35.5,60.1-19c31.1,24.2,14.6,58.9,2.1,78.4C1597.7,890,1559,885.8,1545,880.4z"/>
				<linearGradient id="SVGID_19_" gradientUnits="userSpaceOnUse" x1="1543.0464" y1="1069.0013" x2="1611.8331" y2="950.3822">
					<stop  offset="0" style="stop-color:#B92BF1"/>
					<stop  offset="1" style="stop-color:#951DCE"/>
				</linearGradient>
				<path class="st34" d="M1606.6,1117.8c-6.2-11.8-10.5-19.2-8.8-34.1c3.4-30.1,26.4-85.2,17.3-120.7
					c-8.3-32.5-20.4-41.8-22.3-64.4c-12,4.4-35.1,1.7-43.2,0.7c-1.4,9.1,2.4,19.8-2.2,22.6c-11.3,6.8-27.7,39-39,53.7
					c-11.3,14.7-14,33.8-5.8,47.2c8.2,13.3,16.7,29.4,19.8,51.6c1.4,10.4,1.5,25.8-0.1,43
					C1550.6,1122.2,1586.8,1119.8,1606.6,1117.8z"/>
				<path class="st5" d="M1398.1,1674.8c36.3-7.1,38.2-11.4,54.6-16.8c13.3-4.4,14.8-11.9,10.5-26.5c-5.1,0.9-11.1,3.4-20,7.5
					c-16.3,7.5-36.6,23.2-51.7,19c-5.6-1.6-7.5-5.1-7.6-9c-15.2,5.9-41,13.2-25.9,20.1C1374.5,1676.6,1390.5,1676.3,1398.1,1674.8z"
					/>
				<path class="st5" d="M1618.5,1635.4c5.4-10.2,0.3-15.9-5-28.5c-5.3,3.6-9.2,8.8-14.3,13.8c-9.2,9.2-19.3,21.6-38.6,26.5
					c-11.7,3-16.6-2.3-18.6-6.8c-11.7,6.2-23.2,8.9-28.2,13.7c-18.3,17.7,19.2,25.7,35,16.3C1594,1643.5,1607,1657.1,1618.5,1635.4z
					"/>
				<linearGradient id="SVGID_20_" gradientUnits="userSpaceOnUse" x1="1430.4207" y1="973.8638" x2="1559.4032" y2="891.1167">
					<stop  offset="0" style="stop-color:#B92BF1"/>
					<stop  offset="1" style="stop-color:#951DCE"/>
				</linearGradient>
				<path class="st35" d="M1449.7,907.8c-6-7.7-14.5-17.6-23-28.1c-3.3,6.3-18.4,19.5-30.9,24.6c14.7,20.3,29.4,37.2,37.7,40.9
					c16.4,7.2,116.4,48.6,116.4,48.6l28.4-45.4C1578.4,948.4,1467.3,930.1,1449.7,907.8z"/>
				<g>
					<path class="st27" d="M1507.1,938.8c2.8,0,5.2-1.8,6-4.3c-4.1-1.1-8.3-2.2-12.3-3.4c-0.1,0.4-0.1,0.8-0.1,1.2
						C1500.7,936,1503.6,938.8,1507.1,938.8z"/>
					<circle class="st27" cx="1567.9" cy="1006.6" r="6.4"/>
					<circle class="st27" cx="1549.8" cy="1090.1" r="6.4"/>
					<circle class="st27" cx="1530.6" cy="1013" r="6.4"/>
					<circle class="st27" cx="1545.4" cy="973.8" r="6.4"/>
					<circle class="st27" cx="1573.6" cy="920.8" r="6.4"/>
					<path class="st27" d="M1437.8,893.2c-2.6-3.1-5.3-6.4-8-9.7c-2,1.1-3.4,3.2-3.4,5.7c0,3.5,2.9,6.4,6.4,6.4
						C1434.8,895.5,1436.6,894.6,1437.8,893.2z"/>
					<circle class="st27" cx="1440.6" cy="928.8" r="6.4"/>
					<circle class="st27" cx="1580" cy="963.7" r="6.4"/>
					<path class="st27" d="M1538.7,930.4c1.2,1.3,2.8,2,4.7,2c3.5,0,6.4-2.9,6.4-6.4c0-1.8-0.7-3.4-1.9-4.6
						c-0.2,0.1-0.3,0.3-0.5,0.4C1544.8,923.4,1541.8,926.5,1538.7,930.4z"/>
					<circle class="st27" cx="1561.5" cy="1052.4" r="6.4"/>
					<path class="st27" d="M1603.8,938.8c1,0,2-0.2,2.9-0.7c-1.8-4.3-3.7-8-5.3-11.7c-2.3,1-3.9,3.3-3.9,5.9
						C1597.4,936,1600.2,938.8,1603.8,938.8z"/>
					<path class="st27" d="M1603.8,1038.9c-3.5,0-6.4,2.9-6.4,6.4s2.9,6.4,6.4,6.4c0.3,0,0.6,0,0.9-0.1c1-3.8,2-7.6,2.9-11.5
						C1606.5,1039.3,1605.2,1038.9,1603.8,1038.9z"/>
					<path class="st27" d="M1610.8,993.8c0,3.1,2.2,5.7,5.1,6.3c0.6-4.3,1-8.5,1.2-12.7C1613.6,987.4,1610.8,990.3,1610.8,993.8z"/>
					<path class="st27" d="M1590.9,1081.4c0,3.5,2.9,6.4,6.4,6.4c0,0,0.1,0,0.1,0c0.1-1.3,0.1-2.7,0.3-4.1c0.3-2.6,0.8-5.5,1.3-8.5
						c-0.6-0.2-1.2-0.3-1.8-0.3C1593.8,1075,1590.9,1077.9,1590.9,1081.4z"/>
					<path class="st27" d="M1406.3,918.1c1.4-1.2,2.4-3,2.4-5c0-3.5-2.9-6.4-6.4-6.4c-1.4,0-2.7,0.5-3.7,1.2
						C1401.1,911.5,1403.7,914.9,1406.3,918.1z"/>
					<path class="st27" d="M1509.7,990.5c0-3.5-2.9-6.4-6.4-6.4c0,0-0.1,0-0.1,0c-1.8,3.7-3.2,7.5-4.1,11.3c1.1,1,2.6,1.6,4.2,1.6
						C1506.8,996.9,1509.7,994,1509.7,990.5z"/>
					<path class="st27" d="M1481.7,963.7c0-3.5-2.9-6.4-6.4-6.4c-2.4,0-4.4,1.3-5.5,3.2c3.8,1.6,7.7,3.2,11.7,4.9
						C1481.6,964.8,1481.7,964.2,1481.7,963.7z"/>
					<path class="st27" d="M1470,926c0,3.5,2.9,6.4,6.4,6.4c3.5,0,6.4-2.9,6.4-6.4c0-0.1,0-0.3,0-0.4c-3.8-1.3-7.5-2.7-10.9-4.1
						C1470.7,922.6,1470,924.2,1470,926z"/>
					<path class="st27" d="M1521.7,1062.5c3.5,0,6.4-2.9,6.4-6.4s-2.9-6.4-6.4-6.4c-1.8,0-3.4,0.8-4.6,2c1.2,3.4,2.3,7,3.2,10.7
						C1520.7,1062.5,1521.2,1062.5,1521.7,1062.5z"/>
					<path class="st27" d="M1593.6,1113.8c0-3.5-2.9-6.4-6.4-6.4c-3.5,0-6.4,2.9-6.4,6.4c0,2.6,1.5,4.7,3.6,5.8
						c2.1-0.1,4.2-0.2,6.2-0.4C1592.4,1118,1593.6,1116,1593.6,1113.8z"/>
				</g>
				<linearGradient id="SVGID_21_" gradientUnits="userSpaceOnUse" x1="1525.7133" y1="1426.1909" x2="1551.6816" y2="1114.6045">
					<stop  offset="0" style="stop-color:#464392"/>
					<stop  offset="1" style="stop-color:#303075"/>
				</linearGradient>
				<path class="st36" d="M1627.4,1179.1c-7.5-39.8-18-55.3-24.4-68.1c-30.2,10.5-62.6,6.4-80.4,2.6c-1.6,20.3-5.6,43.6-12.1,64.8
					c-11.6,37.6-49.9,216.7-52.6,232.4c-2.5,14.3-20.8,146.6-30.2,190.6c12.2,1.3,29.2,4,37.7,3.1c1.9-27,14.2-72.1,27.2-106.1
					c16.4-43.1,10.9-76.3,26-108.4C1533.6,1357.8,1640.2,1247.1,1627.4,1179.1z"/>
				<linearGradient id="SVGID_22_" gradientUnits="userSpaceOnUse" x1="1598.1792" y1="886.485" x2="1587.2101" y2="791.7355">
					<stop  offset="0" style="stop-color:#464392"/>
					<stop  offset="1" style="stop-color:#303075"/>
				</linearGradient>
				<path class="st37" d="M1641.9,887.8c-0.8-8.2-4.9-16.1-7.8-23.8c-0.8-2.1-1.5-4.2-2.2-6.4c-0.1-3.9-0.1-7.8-0.1-11.7
					c-0.1-15.2-0.5-31.2-7.6-45c-6-11.6-16.6-19.7-29-22.7c-0.3,0-0.6-0.1-0.9-0.1c-9.9-1.4-19.8,1.3-20.5,1.5
					c-4.7,1.8-9.1,4.5-12.7,8.1c0,0-2.5,2.4-4.5,4.9c-4.4,6.1-8.3,12.6-9.6,20.2c-1.4,8.6,1.6,16.2,7.1,22.7
					c6.6,7.9,15.1,13.9,19.6,23.4c1.7,3.7,3,7.6,3.6,11.5c-0.1,2.3-0.3,4.5-0.8,6.7c-1.5,6.5-5.5,11.7-8.6,17.5
					c-2.9,5.5-5.1,12.2-2.8,18.3c1,2.6,2.8,4.9,5.1,6.4c2.7,2,6.5,2.9,9.6,3c3.3,0.1,5.5-0.9,8.1-2.7c3.6-2.6,7.4-4.7,11.7-6.1
					c9.5-3.2,23.2-1.2,31-7.2C1637.7,903.1,1642.9,897.5,1641.9,887.8z M1567.2,846.1c-6.7-7.2-15.9-13.7-18.1-23.9
					c-1.4-6.6,0.1-12.8,2.9-18.6c-1.7,7.1-1,14.8,2.3,21.3c2.7,5.4,7,9.8,10.9,14.3c4.5,5.3,8.1,11.2,10.2,17.9
					c0.3,0.9,0.5,1.8,0.7,2.7C1574,854.9,1571,850.2,1567.2,846.1z M1636.4,900.2c-0.7,0.8-1.5,1.5-2.3,2.2c1-1.7,1.7-3.7,2.2-6.2
					c1.3-7.6-1.6-15-2.9-22.4c-0.5-3.1-0.9-6.2-1.1-9.3c1.2,3.4,2.6,6.8,3.9,10.2C1639.3,882.8,1642.9,892.7,1636.4,900.2z"/>
			</g>
		</g>
	</g>
</g>
</svg>
